<?xml version="1.0" encoding="utf-8" standalone="no"?>
<!DOCTYPE svg PUBLIC "-//W3C//DTD SVG 1.1//EN"
  "http://www.w3.org/Graphics/SVG/1.1/DTD/svg11.dtd">
<svg xmlns:xlink="http://www.w3.org/1999/xlink" width="612pt" height="504pt" viewBox="0 0 612 504" xmlns="http://www.w3.org/2000/svg" version="1.1">
 <metadata>
  <rdf:RDF xmlns:dc="http://purl.org/dc/elements/1.1/" xmlns:cc="http://creativecommons.org/ns#" xmlns:rdf="http://www.w3.org/1999/02/22-rdf-syntax-ns#">
   <cc:Work>
    <dc:type rdf:resource="http://purl.org/dc/dcmitype/StillImage"/>
    <dc:date>2026-04-08T16:22:13.550051</dc:date>
    <dc:format>image/svg+xml</dc:format>
    <dc:creator>
     <cc:Agent>
      <dc:title>Matplotlib v3.10.0, https://matplotlib.org/</dc:title>
     </cc:Agent>
    </dc:creator>
   </cc:Work>
  </rdf:RDF>
 </metadata>
 <defs>
  <style type="text/css">*{stroke-linejoin: round; stroke-linecap: butt}</style>
 </defs>
 <g id="figure_1">
  <g id="patch_1">
   <path d="M 0 504 
L 612 504 
L 612 0 
L 0 0 
z
" style="fill: #ffffff"/>
  </g>
  <g id="axes_1">
   <g id="patch_2">
    <path d="M 47.72 462.04 
L 593.28 462.04 
L 593.28 26.88 
L 47.72 26.88 
z
" style="fill: #ffffff"/>
   </g>
   <g id="matplotlib.axis_1">
    <g id="xtick_1">
     <g id="line2d_1">
      <path d="M 47.72 462.04 
L 47.72 26.88 
" clip-path="url(#p9701ecc557)" style="fill: none; stroke: #b0b0b0; stroke-opacity: 0.25; stroke-width: 0.8; stroke-linecap: square"/>
     </g>
     <g id="line2d_2">
      <defs>
       <path id="mde53f42ed1" d="M 0 0 
L 0 3.5 
" style="stroke: #000000; stroke-width: 0.8"/>
      </defs>
      <g>
       <use xlink:href="#mde53f42ed1" x="47.72" y="462.04" style="stroke: #000000; stroke-width: 0.8"/>
      </g>
     </g>
     <g id="text_1">
      <!-- 0.0 -->
      <g transform="translate(39.768438 476.638438) scale(0.1 -0.1)">
       <defs>
        <path id="DejaVuSans-30" d="M 2034 4250 
Q 1547 4250 1301 3770 
Q 1056 3291 1056 2328 
Q 1056 1369 1301 889 
Q 1547 409 2034 409 
Q 2525 409 2770 889 
Q 3016 1369 3016 2328 
Q 3016 3291 2770 3770 
Q 2525 4250 2034 4250 
z
M 2034 4750 
Q 2819 4750 3233 4129 
Q 3647 3509 3647 2328 
Q 3647 1150 3233 529 
Q 2819 -91 2034 -91 
Q 1250 -91 836 529 
Q 422 1150 422 2328 
Q 422 3509 836 4129 
Q 1250 4750 2034 4750 
z
" transform="scale(0.015625)"/>
        <path id="DejaVuSans-2e" d="M 684 794 
L 1344 794 
L 1344 0 
L 684 0 
L 684 794 
z
" transform="scale(0.015625)"/>
       </defs>
       <use xlink:href="#DejaVuSans-30"/>
       <use xlink:href="#DejaVuSans-2e" transform="translate(63.623047 0)"/>
       <use xlink:href="#DejaVuSans-30" transform="translate(95.410156 0)"/>
      </g>
     </g>
    </g>
    <g id="xtick_2">
     <g id="line2d_3">
      <path d="M 156.832 462.04 
L 156.832 26.88 
" clip-path="url(#p9701ecc557)" style="fill: none; stroke: #b0b0b0; stroke-opacity: 0.25; stroke-width: 0.8; stroke-linecap: square"/>
     </g>
     <g id="line2d_4">
      <g>
       <use xlink:href="#mde53f42ed1" x="156.832" y="462.04" style="stroke: #000000; stroke-width: 0.8"/>
      </g>
     </g>
     <g id="text_2">
      <!-- 0.2 -->
      <g transform="translate(148.880438 476.638438) scale(0.1 -0.1)">
       <defs>
        <path id="DejaVuSans-32" d="M 1228 531 
L 3431 531 
L 3431 0 
L 469 0 
L 469 531 
Q 828 903 1448 1529 
Q 2069 2156 2228 2338 
Q 2531 2678 2651 2914 
Q 2772 3150 2772 3378 
Q 2772 3750 2511 3984 
Q 2250 4219 1831 4219 
Q 1534 4219 1204 4116 
Q 875 4013 500 3803 
L 500 4441 
Q 881 4594 1212 4672 
Q 1544 4750 1819 4750 
Q 2544 4750 2975 4387 
Q 3406 4025 3406 3419 
Q 3406 3131 3298 2873 
Q 3191 2616 2906 2266 
Q 2828 2175 2409 1742 
Q 1991 1309 1228 531 
z
" transform="scale(0.015625)"/>
       </defs>
       <use xlink:href="#DejaVuSans-30"/>
       <use xlink:href="#DejaVuSans-2e" transform="translate(63.623047 0)"/>
       <use xlink:href="#DejaVuSans-32" transform="translate(95.410156 0)"/>
      </g>
     </g>
    </g>
    <g id="xtick_3">
     <g id="line2d_5">
      <path d="M 265.944 462.04 
L 265.944 26.88 
" clip-path="url(#p9701ecc557)" style="fill: none; stroke: #b0b0b0; stroke-opacity: 0.25; stroke-width: 0.8; stroke-linecap: square"/>
     </g>
     <g id="line2d_6">
      <g>
       <use xlink:href="#mde53f42ed1" x="265.944" y="462.04" style="stroke: #000000; stroke-width: 0.8"/>
      </g>
     </g>
     <g id="text_3">
      <!-- 0.4 -->
      <g transform="translate(257.992438 476.638438) scale(0.1 -0.1)">
       <defs>
        <path id="DejaVuSans-34" d="M 2419 4116 
L 825 1625 
L 2419 1625 
L 2419 4116 
z
M 2253 4666 
L 3047 4666 
L 3047 1625 
L 3713 1625 
L 3713 1100 
L 3047 1100 
L 3047 0 
L 2419 0 
L 2419 1100 
L 313 1100 
L 313 1709 
L 2253 4666 
z
" transform="scale(0.015625)"/>
       </defs>
       <use xlink:href="#DejaVuSans-30"/>
       <use xlink:href="#DejaVuSans-2e" transform="translate(63.623047 0)"/>
       <use xlink:href="#DejaVuSans-34" transform="translate(95.410156 0)"/>
      </g>
     </g>
    </g>
    <g id="xtick_4">
     <g id="line2d_7">
      <path d="M 375.056 462.04 
L 375.056 26.88 
" clip-path="url(#p9701ecc557)" style="fill: none; stroke: #b0b0b0; stroke-opacity: 0.25; stroke-width: 0.8; stroke-linecap: square"/>
     </g>
     <g id="line2d_8">
      <g>
       <use xlink:href="#mde53f42ed1" x="375.056" y="462.04" style="stroke: #000000; stroke-width: 0.8"/>
      </g>
     </g>
     <g id="text_4">
      <!-- 0.6 -->
      <g transform="translate(367.104438 476.638438) scale(0.1 -0.1)">
       <defs>
        <path id="DejaVuSans-36" d="M 2113 2584 
Q 1688 2584 1439 2293 
Q 1191 2003 1191 1497 
Q 1191 994 1439 701 
Q 1688 409 2113 409 
Q 2538 409 2786 701 
Q 3034 994 3034 1497 
Q 3034 2003 2786 2293 
Q 2538 2584 2113 2584 
z
M 3366 4563 
L 3366 3988 
Q 3128 4100 2886 4159 
Q 2644 4219 2406 4219 
Q 1781 4219 1451 3797 
Q 1122 3375 1075 2522 
Q 1259 2794 1537 2939 
Q 1816 3084 2150 3084 
Q 2853 3084 3261 2657 
Q 3669 2231 3669 1497 
Q 3669 778 3244 343 
Q 2819 -91 2113 -91 
Q 1303 -91 875 529 
Q 447 1150 447 2328 
Q 447 3434 972 4092 
Q 1497 4750 2381 4750 
Q 2619 4750 2861 4703 
Q 3103 4656 3366 4563 
z
" transform="scale(0.015625)"/>
       </defs>
       <use xlink:href="#DejaVuSans-30"/>
       <use xlink:href="#DejaVuSans-2e" transform="translate(63.623047 0)"/>
       <use xlink:href="#DejaVuSans-36" transform="translate(95.410156 0)"/>
      </g>
     </g>
    </g>
    <g id="xtick_5">
     <g id="line2d_9">
      <path d="M 484.168 462.04 
L 484.168 26.88 
" clip-path="url(#p9701ecc557)" style="fill: none; stroke: #b0b0b0; stroke-opacity: 0.25; stroke-width: 0.8; stroke-linecap: square"/>
     </g>
     <g id="line2d_10">
      <g>
       <use xlink:href="#mde53f42ed1" x="484.168" y="462.04" style="stroke: #000000; stroke-width: 0.8"/>
      </g>
     </g>
     <g id="text_5">
      <!-- 0.8 -->
      <g transform="translate(476.216438 476.638438) scale(0.1 -0.1)">
       <defs>
        <path id="DejaVuSans-38" d="M 2034 2216 
Q 1584 2216 1326 1975 
Q 1069 1734 1069 1313 
Q 1069 891 1326 650 
Q 1584 409 2034 409 
Q 2484 409 2743 651 
Q 3003 894 3003 1313 
Q 3003 1734 2745 1975 
Q 2488 2216 2034 2216 
z
M 1403 2484 
Q 997 2584 770 2862 
Q 544 3141 544 3541 
Q 544 4100 942 4425 
Q 1341 4750 2034 4750 
Q 2731 4750 3128 4425 
Q 3525 4100 3525 3541 
Q 3525 3141 3298 2862 
Q 3072 2584 2669 2484 
Q 3125 2378 3379 2068 
Q 3634 1759 3634 1313 
Q 3634 634 3220 271 
Q 2806 -91 2034 -91 
Q 1263 -91 848 271 
Q 434 634 434 1313 
Q 434 1759 690 2068 
Q 947 2378 1403 2484 
z
M 1172 3481 
Q 1172 3119 1398 2916 
Q 1625 2713 2034 2713 
Q 2441 2713 2670 2916 
Q 2900 3119 2900 3481 
Q 2900 3844 2670 4047 
Q 2441 4250 2034 4250 
Q 1625 4250 1398 4047 
Q 1172 3844 1172 3481 
z
" transform="scale(0.015625)"/>
       </defs>
       <use xlink:href="#DejaVuSans-30"/>
       <use xlink:href="#DejaVuSans-2e" transform="translate(63.623047 0)"/>
       <use xlink:href="#DejaVuSans-38" transform="translate(95.410156 0)"/>
      </g>
     </g>
    </g>
    <g id="xtick_6">
     <g id="line2d_11">
      <path d="M 593.28 462.04 
L 593.28 26.88 
" clip-path="url(#p9701ecc557)" style="fill: none; stroke: #b0b0b0; stroke-opacity: 0.25; stroke-width: 0.8; stroke-linecap: square"/>
     </g>
     <g id="line2d_12">
      <g>
       <use xlink:href="#mde53f42ed1" x="593.28" y="462.04" style="stroke: #000000; stroke-width: 0.8"/>
      </g>
     </g>
     <g id="text_6">
      <!-- 1.0 -->
      <g transform="translate(585.328438 476.638438) scale(0.1 -0.1)">
       <defs>
        <path id="DejaVuSans-31" d="M 794 531 
L 1825 531 
L 1825 4091 
L 703 3866 
L 703 4441 
L 1819 4666 
L 2450 4666 
L 2450 531 
L 3481 531 
L 3481 0 
L 794 0 
L 794 531 
z
" transform="scale(0.015625)"/>
       </defs>
       <use xlink:href="#DejaVuSans-31"/>
       <use xlink:href="#DejaVuSans-2e" transform="translate(63.623047 0)"/>
       <use xlink:href="#DejaVuSans-30" transform="translate(95.410156 0)"/>
      </g>
     </g>
    </g>
    <g id="text_7">
     <!-- False Positive Rate -->
     <g transform="translate(274.033594 490.316563) scale(0.1 -0.1)">
      <defs>
       <path id="DejaVuSans-46" d="M 628 4666 
L 3309 4666 
L 3309 4134 
L 1259 4134 
L 1259 2759 
L 3109 2759 
L 3109 2228 
L 1259 2228 
L 1259 0 
L 628 0 
L 628 4666 
z
" transform="scale(0.015625)"/>
       <path id="DejaVuSans-61" d="M 2194 1759 
Q 1497 1759 1228 1600 
Q 959 1441 959 1056 
Q 959 750 1161 570 
Q 1363 391 1709 391 
Q 2188 391 2477 730 
Q 2766 1069 2766 1631 
L 2766 1759 
L 2194 1759 
z
M 3341 1997 
L 3341 0 
L 2766 0 
L 2766 531 
Q 2569 213 2275 61 
Q 1981 -91 1556 -91 
Q 1019 -91 701 211 
Q 384 513 384 1019 
Q 384 1609 779 1909 
Q 1175 2209 1959 2209 
L 2766 2209 
L 2766 2266 
Q 2766 2663 2505 2880 
Q 2244 3097 1772 3097 
Q 1472 3097 1187 3025 
Q 903 2953 641 2809 
L 641 3341 
Q 956 3463 1253 3523 
Q 1550 3584 1831 3584 
Q 2591 3584 2966 3190 
Q 3341 2797 3341 1997 
z
" transform="scale(0.015625)"/>
       <path id="DejaVuSans-6c" d="M 603 4863 
L 1178 4863 
L 1178 0 
L 603 0 
L 603 4863 
z
" transform="scale(0.015625)"/>
       <path id="DejaVuSans-73" d="M 2834 3397 
L 2834 2853 
Q 2591 2978 2328 3040 
Q 2066 3103 1784 3103 
Q 1356 3103 1142 2972 
Q 928 2841 928 2578 
Q 928 2378 1081 2264 
Q 1234 2150 1697 2047 
L 1894 2003 
Q 2506 1872 2764 1633 
Q 3022 1394 3022 966 
Q 3022 478 2636 193 
Q 2250 -91 1575 -91 
Q 1294 -91 989 -36 
Q 684 19 347 128 
L 347 722 
Q 666 556 975 473 
Q 1284 391 1588 391 
Q 1994 391 2212 530 
Q 2431 669 2431 922 
Q 2431 1156 2273 1281 
Q 2116 1406 1581 1522 
L 1381 1569 
Q 847 1681 609 1914 
Q 372 2147 372 2553 
Q 372 3047 722 3315 
Q 1072 3584 1716 3584 
Q 2034 3584 2315 3537 
Q 2597 3491 2834 3397 
z
" transform="scale(0.015625)"/>
       <path id="DejaVuSans-65" d="M 3597 1894 
L 3597 1613 
L 953 1613 
Q 991 1019 1311 708 
Q 1631 397 2203 397 
Q 2534 397 2845 478 
Q 3156 559 3463 722 
L 3463 178 
Q 3153 47 2828 -22 
Q 2503 -91 2169 -91 
Q 1331 -91 842 396 
Q 353 884 353 1716 
Q 353 2575 817 3079 
Q 1281 3584 2069 3584 
Q 2775 3584 3186 3129 
Q 3597 2675 3597 1894 
z
M 3022 2063 
Q 3016 2534 2758 2815 
Q 2500 3097 2075 3097 
Q 1594 3097 1305 2825 
Q 1016 2553 972 2059 
L 3022 2063 
z
" transform="scale(0.015625)"/>
       <path id="DejaVuSans-20" transform="scale(0.015625)"/>
       <path id="DejaVuSans-50" d="M 1259 4147 
L 1259 2394 
L 2053 2394 
Q 2494 2394 2734 2622 
Q 2975 2850 2975 3272 
Q 2975 3691 2734 3919 
Q 2494 4147 2053 4147 
L 1259 4147 
z
M 628 4666 
L 2053 4666 
Q 2838 4666 3239 4311 
Q 3641 3956 3641 3272 
Q 3641 2581 3239 2228 
Q 2838 1875 2053 1875 
L 1259 1875 
L 1259 0 
L 628 0 
L 628 4666 
z
" transform="scale(0.015625)"/>
       <path id="DejaVuSans-6f" d="M 1959 3097 
Q 1497 3097 1228 2736 
Q 959 2375 959 1747 
Q 959 1119 1226 758 
Q 1494 397 1959 397 
Q 2419 397 2687 759 
Q 2956 1122 2956 1747 
Q 2956 2369 2687 2733 
Q 2419 3097 1959 3097 
z
M 1959 3584 
Q 2709 3584 3137 3096 
Q 3566 2609 3566 1747 
Q 3566 888 3137 398 
Q 2709 -91 1959 -91 
Q 1206 -91 779 398 
Q 353 888 353 1747 
Q 353 2609 779 3096 
Q 1206 3584 1959 3584 
z
" transform="scale(0.015625)"/>
       <path id="DejaVuSans-69" d="M 603 3500 
L 1178 3500 
L 1178 0 
L 603 0 
L 603 3500 
z
M 603 4863 
L 1178 4863 
L 1178 4134 
L 603 4134 
L 603 4863 
z
" transform="scale(0.015625)"/>
       <path id="DejaVuSans-74" d="M 1172 4494 
L 1172 3500 
L 2356 3500 
L 2356 3053 
L 1172 3053 
L 1172 1153 
Q 1172 725 1289 603 
Q 1406 481 1766 481 
L 2356 481 
L 2356 0 
L 1766 0 
Q 1100 0 847 248 
Q 594 497 594 1153 
L 594 3053 
L 172 3053 
L 172 3500 
L 594 3500 
L 594 4494 
L 1172 4494 
z
" transform="scale(0.015625)"/>
       <path id="DejaVuSans-76" d="M 191 3500 
L 800 3500 
L 1894 563 
L 2988 3500 
L 3597 3500 
L 2284 0 
L 1503 0 
L 191 3500 
z
" transform="scale(0.015625)"/>
       <path id="DejaVuSans-52" d="M 2841 2188 
Q 3044 2119 3236 1894 
Q 3428 1669 3622 1275 
L 4263 0 
L 3584 0 
L 2988 1197 
Q 2756 1666 2539 1819 
Q 2322 1972 1947 1972 
L 1259 1972 
L 1259 0 
L 628 0 
L 628 4666 
L 2053 4666 
Q 2853 4666 3247 4331 
Q 3641 3997 3641 3322 
Q 3641 2881 3436 2590 
Q 3231 2300 2841 2188 
z
M 1259 4147 
L 1259 2491 
L 2053 2491 
Q 2509 2491 2742 2702 
Q 2975 2913 2975 3322 
Q 2975 3731 2742 3939 
Q 2509 4147 2053 4147 
L 1259 4147 
z
" transform="scale(0.015625)"/>
      </defs>
      <use xlink:href="#DejaVuSans-46"/>
      <use xlink:href="#DejaVuSans-61" transform="translate(48.394531 0)"/>
      <use xlink:href="#DejaVuSans-6c" transform="translate(109.673828 0)"/>
      <use xlink:href="#DejaVuSans-73" transform="translate(137.457031 0)"/>
      <use xlink:href="#DejaVuSans-65" transform="translate(189.556641 0)"/>
      <use xlink:href="#DejaVuSans-20" transform="translate(251.080078 0)"/>
      <use xlink:href="#DejaVuSans-50" transform="translate(282.867188 0)"/>
      <use xlink:href="#DejaVuSans-6f" transform="translate(339.544922 0)"/>
      <use xlink:href="#DejaVuSans-73" transform="translate(400.726562 0)"/>
      <use xlink:href="#DejaVuSans-69" transform="translate(452.826172 0)"/>
      <use xlink:href="#DejaVuSans-74" transform="translate(480.609375 0)"/>
      <use xlink:href="#DejaVuSans-69" transform="translate(519.818359 0)"/>
      <use xlink:href="#DejaVuSans-76" transform="translate(547.601562 0)"/>
      <use xlink:href="#DejaVuSans-65" transform="translate(606.78125 0)"/>
      <use xlink:href="#DejaVuSans-20" transform="translate(668.304688 0)"/>
      <use xlink:href="#DejaVuSans-52" transform="translate(700.091797 0)"/>
      <use xlink:href="#DejaVuSans-61" transform="translate(767.324219 0)"/>
      <use xlink:href="#DejaVuSans-74" transform="translate(828.603516 0)"/>
      <use xlink:href="#DejaVuSans-65" transform="translate(867.8125 0)"/>
     </g>
    </g>
   </g>
   <g id="matplotlib.axis_2">
    <g id="ytick_1">
     <g id="line2d_13">
      <path d="M 47.72 462.04 
L 593.28 462.04 
" clip-path="url(#p9701ecc557)" style="fill: none; stroke: #b0b0b0; stroke-opacity: 0.25; stroke-width: 0.8; stroke-linecap: square"/>
     </g>
     <g id="line2d_14">
      <defs>
       <path id="m9676a58577" d="M 0 0 
L -3.5 0 
" style="stroke: #000000; stroke-width: 0.8"/>
      </defs>
      <g>
       <use xlink:href="#m9676a58577" x="47.72" y="462.04" style="stroke: #000000; stroke-width: 0.8"/>
      </g>
     </g>
     <g id="text_8">
      <!-- 0.0 -->
      <g transform="translate(24.816875 465.839219) scale(0.1 -0.1)">
       <use xlink:href="#DejaVuSans-30"/>
       <use xlink:href="#DejaVuSans-2e" transform="translate(63.623047 0)"/>
       <use xlink:href="#DejaVuSans-30" transform="translate(95.410156 0)"/>
      </g>
     </g>
    </g>
    <g id="ytick_2">
     <g id="line2d_15">
      <path d="M 47.72 376.71451 
L 593.28 376.71451 
" clip-path="url(#p9701ecc557)" style="fill: none; stroke: #b0b0b0; stroke-opacity: 0.25; stroke-width: 0.8; stroke-linecap: square"/>
     </g>
     <g id="line2d_16">
      <g>
       <use xlink:href="#m9676a58577" x="47.72" y="376.71451" style="stroke: #000000; stroke-width: 0.8"/>
      </g>
     </g>
     <g id="text_9">
      <!-- 0.2 -->
      <g transform="translate(24.816875 380.513729) scale(0.1 -0.1)">
       <use xlink:href="#DejaVuSans-30"/>
       <use xlink:href="#DejaVuSans-2e" transform="translate(63.623047 0)"/>
       <use xlink:href="#DejaVuSans-32" transform="translate(95.410156 0)"/>
      </g>
     </g>
    </g>
    <g id="ytick_3">
     <g id="line2d_17">
      <path d="M 47.72 291.38902 
L 593.28 291.38902 
" clip-path="url(#p9701ecc557)" style="fill: none; stroke: #b0b0b0; stroke-opacity: 0.25; stroke-width: 0.8; stroke-linecap: square"/>
     </g>
     <g id="line2d_18">
      <g>
       <use xlink:href="#m9676a58577" x="47.72" y="291.38902" style="stroke: #000000; stroke-width: 0.8"/>
      </g>
     </g>
     <g id="text_10">
      <!-- 0.4 -->
      <g transform="translate(24.816875 295.188238) scale(0.1 -0.1)">
       <use xlink:href="#DejaVuSans-30"/>
       <use xlink:href="#DejaVuSans-2e" transform="translate(63.623047 0)"/>
       <use xlink:href="#DejaVuSans-34" transform="translate(95.410156 0)"/>
      </g>
     </g>
    </g>
    <g id="ytick_4">
     <g id="line2d_19">
      <path d="M 47.72 206.063529 
L 593.28 206.063529 
" clip-path="url(#p9701ecc557)" style="fill: none; stroke: #b0b0b0; stroke-opacity: 0.25; stroke-width: 0.8; stroke-linecap: square"/>
     </g>
     <g id="line2d_20">
      <g>
       <use xlink:href="#m9676a58577" x="47.72" y="206.063529" style="stroke: #000000; stroke-width: 0.8"/>
      </g>
     </g>
     <g id="text_11">
      <!-- 0.6 -->
      <g transform="translate(24.816875 209.862748) scale(0.1 -0.1)">
       <use xlink:href="#DejaVuSans-30"/>
       <use xlink:href="#DejaVuSans-2e" transform="translate(63.623047 0)"/>
       <use xlink:href="#DejaVuSans-36" transform="translate(95.410156 0)"/>
      </g>
     </g>
    </g>
    <g id="ytick_5">
     <g id="line2d_21">
      <path d="M 47.72 120.738039 
L 593.28 120.738039 
" clip-path="url(#p9701ecc557)" style="fill: none; stroke: #b0b0b0; stroke-opacity: 0.25; stroke-width: 0.8; stroke-linecap: square"/>
     </g>
     <g id="line2d_22">
      <g>
       <use xlink:href="#m9676a58577" x="47.72" y="120.738039" style="stroke: #000000; stroke-width: 0.8"/>
      </g>
     </g>
     <g id="text_12">
      <!-- 0.8 -->
      <g transform="translate(24.816875 124.537258) scale(0.1 -0.1)">
       <use xlink:href="#DejaVuSans-30"/>
       <use xlink:href="#DejaVuSans-2e" transform="translate(63.623047 0)"/>
       <use xlink:href="#DejaVuSans-38" transform="translate(95.410156 0)"/>
      </g>
     </g>
    </g>
    <g id="ytick_6">
     <g id="line2d_23">
      <path d="M 47.72 35.412549 
L 593.28 35.412549 
" clip-path="url(#p9701ecc557)" style="fill: none; stroke: #b0b0b0; stroke-opacity: 0.25; stroke-width: 0.8; stroke-linecap: square"/>
     </g>
     <g id="line2d_24">
      <g>
       <use xlink:href="#m9676a58577" x="47.72" y="35.412549" style="stroke: #000000; stroke-width: 0.8"/>
      </g>
     </g>
     <g id="text_13">
      <!-- 1.0 -->
      <g transform="translate(24.816875 39.211768) scale(0.1 -0.1)">
       <use xlink:href="#DejaVuSans-31"/>
       <use xlink:href="#DejaVuSans-2e" transform="translate(63.623047 0)"/>
       <use xlink:href="#DejaVuSans-30" transform="translate(95.410156 0)"/>
      </g>
     </g>
    </g>
    <g id="text_14">
     <!-- True Positive Rate / Recall -->
     <g transform="translate(18.737188 308.769375) rotate(-90) scale(0.1 -0.1)">
      <defs>
       <path id="DejaVuSans-54" d="M -19 4666 
L 3928 4666 
L 3928 4134 
L 2272 4134 
L 2272 0 
L 1638 0 
L 1638 4134 
L -19 4134 
L -19 4666 
z
" transform="scale(0.015625)"/>
       <path id="DejaVuSans-72" d="M 2631 2963 
Q 2534 3019 2420 3045 
Q 2306 3072 2169 3072 
Q 1681 3072 1420 2755 
Q 1159 2438 1159 1844 
L 1159 0 
L 581 0 
L 581 3500 
L 1159 3500 
L 1159 2956 
Q 1341 3275 1631 3429 
Q 1922 3584 2338 3584 
Q 2397 3584 2469 3576 
Q 2541 3569 2628 3553 
L 2631 2963 
z
" transform="scale(0.015625)"/>
       <path id="DejaVuSans-75" d="M 544 1381 
L 544 3500 
L 1119 3500 
L 1119 1403 
Q 1119 906 1312 657 
Q 1506 409 1894 409 
Q 2359 409 2629 706 
Q 2900 1003 2900 1516 
L 2900 3500 
L 3475 3500 
L 3475 0 
L 2900 0 
L 2900 538 
Q 2691 219 2414 64 
Q 2138 -91 1772 -91 
Q 1169 -91 856 284 
Q 544 659 544 1381 
z
M 1991 3584 
L 1991 3584 
z
" transform="scale(0.015625)"/>
       <path id="DejaVuSans-2f" d="M 1625 4666 
L 2156 4666 
L 531 -594 
L 0 -594 
L 1625 4666 
z
" transform="scale(0.015625)"/>
       <path id="DejaVuSans-63" d="M 3122 3366 
L 3122 2828 
Q 2878 2963 2633 3030 
Q 2388 3097 2138 3097 
Q 1578 3097 1268 2742 
Q 959 2388 959 1747 
Q 959 1106 1268 751 
Q 1578 397 2138 397 
Q 2388 397 2633 464 
Q 2878 531 3122 666 
L 3122 134 
Q 2881 22 2623 -34 
Q 2366 -91 2075 -91 
Q 1284 -91 818 406 
Q 353 903 353 1747 
Q 353 2603 823 3093 
Q 1294 3584 2113 3584 
Q 2378 3584 2631 3529 
Q 2884 3475 3122 3366 
z
" transform="scale(0.015625)"/>
      </defs>
      <use xlink:href="#DejaVuSans-54"/>
      <use xlink:href="#DejaVuSans-72" transform="translate(46.333984 0)"/>
      <use xlink:href="#DejaVuSans-75" transform="translate(87.447266 0)"/>
      <use xlink:href="#DejaVuSans-65" transform="translate(150.826172 0)"/>
      <use xlink:href="#DejaVuSans-20" transform="translate(212.349609 0)"/>
      <use xlink:href="#DejaVuSans-50" transform="translate(244.136719 0)"/>
      <use xlink:href="#DejaVuSans-6f" transform="translate(300.814453 0)"/>
      <use xlink:href="#DejaVuSans-73" transform="translate(361.996094 0)"/>
      <use xlink:href="#DejaVuSans-69" transform="translate(414.095703 0)"/>
      <use xlink:href="#DejaVuSans-74" transform="translate(441.878906 0)"/>
      <use xlink:href="#DejaVuSans-69" transform="translate(481.087891 0)"/>
      <use xlink:href="#DejaVuSans-76" transform="translate(508.871094 0)"/>
      <use xlink:href="#DejaVuSans-65" transform="translate(568.050781 0)"/>
      <use xlink:href="#DejaVuSans-20" transform="translate(629.574219 0)"/>
      <use xlink:href="#DejaVuSans-52" transform="translate(661.361328 0)"/>
      <use xlink:href="#DejaVuSans-61" transform="translate(728.59375 0)"/>
      <use xlink:href="#DejaVuSans-74" transform="translate(789.873047 0)"/>
      <use xlink:href="#DejaVuSans-65" transform="translate(829.082031 0)"/>
      <use xlink:href="#DejaVuSans-20" transform="translate(890.605469 0)"/>
      <use xlink:href="#DejaVuSans-2f" transform="translate(922.392578 0)"/>
      <use xlink:href="#DejaVuSans-20" transform="translate(956.083984 0)"/>
      <use xlink:href="#DejaVuSans-52" transform="translate(987.871094 0)"/>
      <use xlink:href="#DejaVuSans-65" transform="translate(1052.853516 0)"/>
      <use xlink:href="#DejaVuSans-63" transform="translate(1114.376953 0)"/>
      <use xlink:href="#DejaVuSans-61" transform="translate(1169.357422 0)"/>
      <use xlink:href="#DejaVuSans-6c" transform="translate(1230.636719 0)"/>
      <use xlink:href="#DejaVuSans-6c" transform="translate(1258.419922 0)"/>
     </g>
    </g>
   </g>
   <g id="line2d_25">
    <path d="M 47.72 462.04 
L 47.806707 447.585477 
L 47.85006 447.585477 
L 47.958444 434.883016 
L 47.980121 434.883016 
L 48.088504 423.056588 
L 48.131858 423.056588 
L 48.240242 411.668176 
L 48.261918 411.668176 
L 48.370302 402.469843 
L 48.413655 402.469843 
L 48.522039 399.403732 
L 48.543716 399.403732 
L 48.652099 389.767383 
L 48.673776 389.767383 
L 48.78216 381.007065 
L 48.825513 381.007065 
L 48.91222 375.750875 
L 48.955574 375.750875 
L 49.063957 372.246748 
L 49.085634 372.246748 
L 49.150664 367.428573 
L 49.215695 367.428573 
L 49.324078 363.924447 
L 49.389108 363.924447 
L 49.497492 355.164129 
L 49.519169 355.164129 
L 49.627552 351.221987 
L 49.649229 351.221987 
L 49.714259 346.841828 
L 49.77929 346.841828 
L 49.865997 343.775717 
L 49.90935 343.775717 
L 50.017734 339.833574 
L 50.082764 339.833574 
L 50.147794 335.0154 
L 50.212824 335.0154 
L 50.299531 333.701352 
L 50.342885 333.701352 
L 50.342885 333.263336 
L 50.494622 333.263336 
L 50.581329 331.073257 
L 50.646359 331.073257 
L 50.754743 328.883178 
L 50.819773 328.883178 
L 50.928156 324.503019 
L 50.949833 324.503019 
L 51.014863 322.750955 
L 51.079894 322.750955 
L 51.188277 320.560876 
L 51.274984 320.560876 
L 51.383368 317.056749 
L 51.405045 317.056749 
L 51.513428 312.676591 
L 51.578458 312.676591 
L 51.578458 312.238575 
L 51.751872 312.238575 
L 51.838579 309.61048 
L 51.881933 309.61048 
L 51.990316 305.668337 
L 52.03367 305.668337 
L 52.055346 304.792305 
L 52.207084 304.792305 
L 52.207084 303.040242 
L 52.337144 303.040242 
L 52.402174 302.16421 
L 52.532235 302.16421 
L 52.532235 301.288178 
L 52.662295 301.288178 
L 52.770679 299.536115 
L 52.792355 299.536115 
L 52.900739 297.346035 
L 52.922416 297.346035 
L 53.009123 294.71794 
L 53.074153 294.71794 
L 53.16086 291.213813 
L 53.204213 291.213813 
L 53.312597 289.023734 
L 53.334274 289.023734 
L 53.420981 288.147702 
L 53.464334 288.147702 
L 53.572718 286.833655 
L 53.594394 286.833655 
L 53.659425 285.519607 
L 53.854515 285.519607 
L 53.854515 284.643575 
L 54.006252 284.643575 
L 54.092959 283.767544 
L 54.136313 283.767544 
L 54.179666 282.453496 
L 54.41811 282.453496 
L 54.461464 281.577464 
L 54.569847 281.577464 
L 54.678231 279.825401 
L 54.743261 279.825401 
L 54.808291 278.511353 
L 54.873322 278.511353 
L 54.981705 276.75929 
L 55.003382 276.75929 
L 55.111766 274.131195 
L 55.198473 274.131195 
L 55.241826 272.379131 
L 55.328533 272.379131 
L 55.393563 271.065084 
L 55.697038 271.065084 
L 55.805421 270.189052 
L 55.935482 270.189052 
L 56.022188 269.31302 
L 56.108895 269.31302 
L 56.217279 267.998973 
L 56.390693 267.998973 
L 56.499077 265.370877 
L 56.520753 265.370877 
L 56.629137 263.618814 
L 56.650814 263.618814 
L 56.715844 262.304766 
L 56.780874 262.304766 
L 56.845904 260.114687 
L 57.040995 260.114687 
L 57.106025 258.800639 
L 57.344469 258.800639 
L 57.344469 258.362624 
L 57.647943 258.362624 
L 57.73465 257.048576 
L 57.929741 257.048576 
L 57.973094 255.296512 
L 58.059801 255.296512 
L 58.059801 254.858497 
L 58.276569 254.858497 
L 58.276569 253.544449 
L 58.449983 253.544449 
L 58.449983 253.106433 
L 58.580043 253.106433 
L 58.645073 251.35437 
L 58.73178 251.35437 
L 58.753457 250.040322 
L 59.208668 250.040322 
L 59.317052 248.288259 
L 59.403759 248.288259 
L 59.512142 246.098179 
L 59.533819 246.098179 
L 59.533819 245.660163 
L 59.685556 245.660163 
L 59.79394 243.032068 
L 59.815617 243.032068 
L 59.85897 241.718021 
L 59.967354 241.718021 
L 60.054061 239.527941 
L 60.249151 239.527941 
L 60.270828 238.65191 
L 60.379212 238.65191 
L 60.444242 236.899846 
L 60.552626 236.899846 
L 60.574302 236.023814 
L 60.899453 236.023814 
L 60.899453 235.147783 
L 61.029514 235.147783 
L 61.029514 234.709767 
L 61.224604 234.709767 
L 61.289634 233.833735 
L 61.376341 233.833735 
L 61.463048 232.957703 
L 61.571432 232.957703 
L 61.679816 231.643656 
L 61.831553 231.643656 
L 61.939936 230.767624 
L 62.135027 230.767624 
L 62.135027 230.329608 
L 62.265087 230.329608 
L 62.265087 229.891592 
L 62.481855 229.891592 
L 62.481855 229.453577 
L 62.655269 229.453577 
L 62.655269 229.015561 
L 62.828682 229.015561 
L 62.893713 227.701513 
L 62.958743 227.701513 
L 62.958743 227.263497 
L 63.218864 227.263497 
L 63.218864 226.387465 
L 63.478984 226.387465 
L 63.587368 225.511434 
L 63.674075 225.511434 
L 63.674075 225.073418 
L 63.804135 225.073418 
L 63.804135 224.635402 
L 64.215993 224.635402 
L 64.215993 223.75937 
L 64.411084 223.75937 
L 64.519468 222.007307 
L 65.083063 222.007307 
L 65.083063 221.569291 
L 65.2348 221.569291 
L 65.2348 221.131275 
L 66.188576 221.131275 
L 66.275283 220.255243 
L 66.665464 220.255243 
L 66.665464 219.817228 
L 66.838878 219.817228 
L 66.882231 218.065164 
L 67.229059 218.065164 
L 67.337443 217.189132 
L 67.42415 217.189132 
L 67.42415 216.751116 
L 67.684271 216.751116 
L 67.684271 216.313101 
L 67.814331 216.313101 
L 67.857684 215.437069 
L 68.009421 215.437069 
L 68.117805 214.561037 
L 68.74643 214.561037 
L 68.74643 213.685005 
L 69.136612 213.685005 
L 69.244995 212.808974 
L 69.440086 212.808974 
L 69.461763 211.932942 
L 69.6135 211.932942 
L 69.6135 211.494926 
L 69.87362 211.494926 
L 69.87362 211.05691 
L 70.263802 211.05691 
L 70.350509 209.304847 
L 70.523922 209.304847 
L 70.632306 208.428815 
L 71.325962 208.428815 
L 71.390992 207.552783 
L 71.499375 207.552783 
L 71.499375 207.114767 
L 71.716143 207.114767 
L 71.716143 206.676752 
L 71.781173 206.676752 
L 71.911233 206.238736 
L 72.366445 206.238736 
L 72.388121 205.362704 
L 72.648242 205.362704 
L 72.734949 204.486672 
L 73.211837 204.486672 
L 73.211837 203.610641 
L 73.450281 203.610641 
L 73.493635 202.734609 
L 73.753756 202.734609 
L 73.862139 201.858577 
L 74.143937 201.858577 
L 74.18729 200.982545 
L 74.512441 200.982545 
L 74.534118 199.668498 
L 74.729209 199.668498 
L 74.794239 198.792466 
L 75.422864 198.792466 
L 75.531248 197.916434 
L 75.552924 197.916434 
L 75.552924 197.478418 
L 75.856399 197.478418 
L 75.856399 196.602387 
L 76.029812 196.602387 
L 76.138196 194.850323 
L 76.159873 194.850323 
L 76.268257 193.974292 
L 76.485024 193.974292 
L 76.485024 193.536276 
L 76.615084 193.536276 
L 76.615084 193.09826 
L 77.352093 193.09826 
L 77.395447 191.784212 
L 77.655567 191.784212 
L 77.655567 191.346196 
L 77.980718 191.346196 
L 77.980718 190.470165 
L 78.175809 190.470165 
L 78.175809 190.032149 
L 78.43593 190.032149 
L 78.522637 189.156117 
L 78.587667 189.156117 
L 78.674374 188.280085 
L 79.476413 188.280085 
L 79.476413 187.842069 
L 80.105038 187.842069 
L 80.105038 187.404054 
L 80.321805 187.404054 
L 80.321805 186.966038 
L 80.516896 186.966038 
L 80.56025 186.090006 
L 81.080491 186.090006 
L 81.080491 185.65199 
L 81.492349 185.65199 
L 81.600733 184.337943 
L 82.272711 184.337943 
L 82.272711 183.899927 
L 82.836306 183.899927 
L 82.836306 183.023895 
L 83.399901 183.023895 
L 83.399901 182.147863 
L 84.158587 182.147863 
L 84.223617 181.271832 
L 84.397031 181.271832 
L 84.505415 179.519768 
L 84.570445 179.519768 
L 84.570445 179.081752 
L 84.678829 179.081752 
L 85.350807 179.081752 
L 85.437514 177.767705 
L 85.567575 177.767705 
L 85.675958 176.891673 
L 85.719312 176.891673 
L 85.806019 176.015641 
L 85.871049 176.015641 
L 85.871049 175.577625 
L 86.434644 175.577625 
L 86.499674 174.701594 
L 86.564704 174.701594 
L 86.564704 174.263578 
L 86.759795 174.263578 
L 86.759795 173.825562 
L 87.236683 173.825562 
L 87.236683 173.387546 
L 87.691894 173.387546 
L 87.691894 172.94953 
L 88.190459 172.94953 
L 88.190459 172.073498 
L 88.298843 172.073498 
L 88.38555 172.073498 
L 88.38555 171.635483 
L 88.775731 171.635483 
L 88.775731 171.197467 
L 89.144236 171.197467 
L 89.230942 170.321435 
L 89.44771 170.321435 
L 89.44771 169.445403 
L 89.664477 169.445403 
L 89.664477 169.007387 
L 89.751184 169.007387 
L 89.859568 169.007387 
L 89.859568 168.569372 
L 90.032982 168.569372 
L 90.032982 168.131356 
L 90.098012 168.131356 
L 90.5749 168.131356 
L 90.63993 167.255324 
L 90.856697 167.255324 
L 90.856697 166.817308 
L 91.030111 166.817308 
L 91.116818 165.50326 
L 91.355262 165.50326 
L 91.463646 164.627229 
L 92.330715 164.627229 
L 92.330715 163.751197 
L 92.76425 163.751197 
L 92.76425 163.313181 
L 92.981017 163.313181 
L 92.981017 162.875165 
L 94.866893 162.875165 
L 94.9536 161.999134 
L 95.452165 161.999134 
L 95.452165 161.561118 
L 95.625579 161.561118 
L 95.625579 161.123102 
L 96.167497 161.123102 
L 96.27588 159.809054 
L 96.340911 159.809054 
L 96.405941 158.933023 
L 96.839476 158.933023 
L 96.839476 158.495007 
L 97.33804 158.495007 
L 97.424747 157.618975 
L 97.988342 157.618975 
L 97.988342 157.180959 
L 98.486907 157.180959 
L 98.595291 156.304927 
L 98.833735 156.304927 
L 98.833735 155.866911 
L 99.180563 155.866911 
L 99.180563 155.428896 
L 100.004278 155.428896 
L 100.004278 154.99088 
L 100.156016 154.99088 
L 100.156016 154.552864 
L 100.307753 154.552864 
L 100.307753 154.114848 
L 100.546197 154.114848 
L 100.65458 152.8008 
L 100.676257 152.8008 
L 100.719611 151.924769 
L 101.044762 151.924769 
L 101.044762 151.486753 
L 101.153145 151.486753 
L 101.565003 151.486753 
L 101.565003 151.048737 
L 102.605486 151.048737 
L 102.605486 150.610721 
L 102.865607 150.610721 
L 102.865607 150.172705 
L 103.082374 150.172705 
L 103.082374 149.734689 
L 103.234112 149.734689 
L 103.234112 149.296674 
L 103.624293 149.296674 
L 103.624293 148.858658 
L 104.621422 148.858658 
L 104.621422 148.420642 
L 104.77316 148.420642 
L 104.816513 147.54461 
L 105.098311 147.54461 
L 105.098311 147.106594 
L 105.488492 147.106594 
L 105.596875 145.792547 
L 106.09544 145.792547 
L 106.09544 145.354531 
L 106.182147 145.354531 
L 106.659035 145.354531 
L 106.745742 144.478499 
L 106.919156 144.478499 
L 106.919156 144.040483 
L 107.374367 144.040483 
L 107.482751 143.164451 
L 107.742872 143.164451 
L 107.742872 142.726436 
L 108.28479 142.726436 
L 108.34982 141.850404 
L 110.951028 141.850404 
L 110.951028 141.412388 
L 112.056542 141.412388 
L 112.056542 140.974372 
L 112.273309 140.974372 
L 112.273309 140.536356 
L 113.010318 140.536356 
L 113.010318 140.09834 
L 114.007448 140.09834 
L 114.007448 139.660325 
L 114.202538 139.660325 
L 114.202538 139.222309 
L 115.177991 139.222309 
L 115.177991 138.784293 
L 115.871647 138.784293 
L 115.871647 138.346277 
L 116.586979 138.346277 
L 116.586979 137.908261 
L 117.757522 137.908261 
L 117.844229 137.032229 
L 118.126027 137.032229 
L 118.126027 136.594213 
L 118.559561 136.594213 
L 118.559561 136.156198 
L 118.711298 136.156198 
L 118.711298 135.718182 
L 120.055256 135.718182 
L 120.055256 135.280166 
L 120.315377 135.280166 
L 120.315377 134.84215 
L 120.727235 134.84215 
L 120.748911 134.404134 
L 121.269153 134.404134 
L 121.269153 133.966118 
L 121.377537 133.966118 
L 121.854425 133.966118 
L 121.854425 133.528102 
L 121.941132 133.528102 
L 122.764847 133.528102 
L 122.873231 132.652071 
L 125.279348 132.652071 
L 125.279348 132.214055 
L 125.322702 132.214055 
L 125.886297 132.214055 
L 125.886297 131.776039 
L 125.951327 131.776039 
L 126.168094 131.776039 
L 126.168094 131.338023 
L 127.92391 131.338023 
L 127.92391 130.900007 
L 128.292414 130.900007 
L 128.292414 130.461991 
L 128.617565 130.461991 
L 128.639242 129.58596 
L 128.682595 129.58596 
L 128.812656 129.58596 
L 128.812656 129.147944 
L 129.0511 129.147944 
L 129.0511 128.709928 
L 129.766432 128.709928 
L 129.766432 128.271912 
L 130.741885 128.271912 
L 130.828592 127.39588 
L 131.023682 127.39588 
L 131.088713 126.519849 
L 132.822851 126.519849 
L 132.822851 126.081833 
L 132.909558 126.081833 
L 133.928365 126.081833 
L 133.928365 125.643817 
L 134.470283 125.643817 
L 134.470283 125.205801 
L 138.025267 125.205801 
L 138.025267 124.767785 
L 138.046944 124.767785 
L 139.325871 124.767785 
L 139.325871 124.329769 
L 139.932819 124.329769 
L 139.932819 123.891753 
L 142.165523 123.891753 
L 142.165523 123.453738 
L 142.208876 123.453738 
L 143.227683 123.453738 
L 143.227683 123.015722 
L 143.704571 123.015722 
L 143.726248 122.577706 
L 145.178589 122.577706 
L 145.178589 122.13969 
L 145.460386 122.13969 
L 145.56877 121.263658 
L 146.5659 121.263658 
L 146.69596 120.825642 
L 147.497999 120.825642 
L 147.497999 120.387627 
L 150.0125 120.387627 
L 150.0125 119.949611 
L 150.836216 119.949611 
L 150.879569 119.511595 
L 151.052983 119.511595 
L 151.096337 119.073579 
L 151.508195 119.073579 
L 151.508195 118.635563 
L 151.768315 118.635563 
L 151.811669 117.759531 
L 151.855022 117.759531 
L 153.892635 117.759531 
L 153.892635 117.321515 
L 154.868088 117.321515 
L 154.868088 116.445484 
L 156.905701 116.445484 
L 156.905701 116.007468 
L 157.295882 116.007468 
L 157.382589 115.131436 
L 157.599356 115.131436 
L 157.599356 114.69342 
L 158.141275 114.69342 
L 158.141275 114.255404 
L 158.813253 114.255404 
L 159.788706 113.379373 
L 161.696259 113.379373 
L 161.804642 112.503341 
L 162.064763 112.503341 
L 162.064763 112.065325 
L 162.08644 112.065325 
L 162.303207 111.627309 
L 162.780095 111.627309 
L 162.888479 110.751278 
L 163.842255 110.751278 
L 163.842255 110.313262 
L 164.102376 109.875246 
L 164.492557 109.875246 
L 164.579264 108.561198 
L 169.153055 108.561198 
L 169.153055 108.123182 
L 170.9739 108.123182 
L 170.9739 107.685166 
L 170.995577 107.685166 
L 171.450788 107.685166 
L 171.580849 107.247151 
L 172.079414 107.247151 
L 172.491271 106.809135 
L 173.054866 106.809135 
L 173.054866 106.371119 
L 176.002902 106.371119 
L 176.002902 105.933103 
L 176.41476 105.933103 
L 176.41476 105.495087 
L 176.913325 105.495087 
L 176.913325 105.057071 
L 177.173446 105.057071 
L 177.173446 104.619055 
L 177.325183 104.619055 
L 177.433566 104.18104 
L 178.300636 104.18104 
L 178.300636 103.743024 
L 179.124352 103.743024 
L 179.124352 103.305008 
L 179.211058 103.305008 
L 179.514533 103.305008 
L 179.514533 102.866992 
L 179.904714 102.866992 
L 179.904714 102.428976 
L 180.208188 102.428976 
L 180.208188 101.552944 
L 180.294895 101.552944 
L 184.348444 101.552944 
L 184.348444 101.114929 
L 184.478504 101.114929 
L 184.478504 100.676913 
L 185.150483 100.676913 
L 185.150483 100.238897 
L 185.23719 100.238897 
L 185.562341 100.238897 
L 185.627371 99.800881 
L 185.779108 99.800881 
L 185.779108 99.362865 
L 185.844139 99.362865 
L 185.974199 99.362865 
L 186.104259 98.486833 
L 186.754561 98.486833 
L 186.754561 98.048817 
L 187.101389 98.048817 
L 187.166419 97.610802 
L 187.599954 97.610802 
L 187.643307 96.73477 
L 191.545119 96.73477 
L 191.545119 96.296754 
L 191.631826 96.296754 
L 192.217098 96.296754 
L 192.542249 95.420722 
L 194.688245 95.420722 
L 194.688245 94.982706 
L 194.883336 94.982706 
L 194.883336 94.544691 
L 196.725858 94.544691 
L 196.725858 94.106675 
L 199.760601 94.106675 
L 199.760601 93.668659 
L 199.847308 93.668659 
L 202.578576 93.668659 
L 202.578576 93.230643 
L 203.337262 93.230643 
L 203.337262 92.792627 
L 207.087336 92.792627 
L 207.087336 92.354611 
L 207.174043 92.354611 
L 208.691414 92.354611 
L 208.756445 91.47858 
L 209.298363 91.47858 
L 209.341716 90.602548 
L 209.666867 90.602548 
L 209.666867 90.164532 
L 210.295493 90.164532 
L 210.295493 89.726516 
L 215.88809 89.726516 
L 215.88809 89.2885 
L 218.14247 89.2885 
L 218.2075 88.850484 
L 220.180083 88.850484 
L 220.180083 88.412468 
L 220.223436 88.412468 
L 220.483557 88.412468 
L 220.483557 87.974453 
L 220.52691 87.974453 
L 221.697454 87.974453 
L 221.697454 87.536437 
L 221.784161 87.536437 
L 222.022605 87.536437 
L 222.022605 87.098421 
L 222.152665 87.098421 
L 222.152665 86.660405 
L 222.71626 86.660405 
L 222.71626 86.222389 
L 223.496623 86.222389 
L 223.496623 85.784373 
L 223.670037 85.784373 
L 223.930157 85.346357 
L 224.64549 85.346357 
L 224.688843 84.908342 
L 226.076154 84.908342 
L 226.076154 84.470326 
L 226.119507 84.470326 
L 227.203344 84.470326 
L 227.203344 84.03231 
L 227.593525 84.03231 
L 227.636879 83.594294 
L 228.09209 83.594294 
L 228.22215 83.156278 
L 228.590655 83.156278 
L 228.590655 82.718262 
L 229.240957 82.718262 
L 229.240957 82.280246 
L 229.609461 82.280246 
L 229.609461 81.842231 
L 229.652815 81.842231 
L 230.541561 81.842231 
L 230.541561 81.404215 
L 230.628268 81.404215 
L 231.47366 81.404215 
L 231.47366 80.966199 
L 231.517014 80.966199 
L 231.712104 80.966199 
L 231.712104 80.528183 
L 232.102285 80.528183 
L 232.102285 80.090167 
L 239.342314 80.090167 
L 239.342314 79.652151 
L 239.494051 79.652151 
L 239.494051 79.214135 
L 239.580758 79.214135 
L 239.624112 79.214135 
L 239.624112 78.776119 
L 239.689142 78.776119 
L 243.916105 78.776119 
L 243.916105 78.338104 
L 244.327962 78.338104 
L 244.327962 77.900088 
L 244.371316 77.900088 
L 250.917689 77.900088 
L 250.917689 77.462072 
L 250.982719 77.462072 
L 251.11278 77.024056 
L 252.781888 77.024056 
L 253.713988 76.58604 
L 254.169199 76.58604 
L 254.169199 76.148024 
L 254.277583 76.148024 
L 255.448126 76.148024 
L 255.448126 75.710008 
L 255.816631 75.710008 
L 255.816631 75.271993 
L 255.903338 75.271993 
L 258.136041 75.271993 
L 258.136041 74.833977 
L 258.201071 74.833977 
L 259.566705 74.833977 
L 259.566705 74.395961 
L 259.631736 74.395961 
L 259.826826 74.395961 
L 259.891856 73.957945 
L 260.260361 73.957945 
L 260.260361 73.519929 
L 262.428034 73.519929 
L 265.332716 72.643897 
L 266.091402 72.643897 
L 266.546613 72.205882 
L 268.649256 72.205882 
L 268.649256 71.767866 
L 268.779317 71.767866 
L 268.800993 70.891834 
L 271.510585 70.891834 
L 271.510585 70.453818 
L 278.338756 70.453818 
L 278.338756 70.015802 
L 279.422592 70.015802 
L 279.422592 69.577786 
L 280.593136 69.577786 
L 280.593136 69.139771 
L 280.679843 69.139771 
L 282.825839 69.139771 
L 282.825839 68.701755 
L 291.734976 68.701755 
L 291.734976 68.263739 
L 292.255218 68.263739 
L 292.255218 67.825723 
L 294.379538 67.825723 
L 294.379538 67.387707 
L 295.441697 67.387707 
L 295.441697 66.949691 
L 295.615111 66.949691 
L 295.615111 66.511675 
L 299.60363 66.511675 
L 299.60363 66.073659 
L 300.514053 66.073659 
L 300.514053 65.635644 
L 300.579083 65.635644 
L 300.644113 65.635644 
L 300.644113 65.197628 
L 300.709143 65.197628 
L 302.334898 65.197628 
L 302.334898 64.759612 
L 302.399928 64.759612 
L 303.700532 64.759612 
L 303.700532 64.321596 
L 303.787239 64.321596 
L 304.177421 64.321596 
L 304.177421 63.88358 
L 304.957783 63.88358 
L 308.621151 63.445564 
L 308.642827 63.007548 
L 309.770017 63.007548 
L 309.770017 62.569533 
L 309.813371 62.569533 
L 311.352419 62.569533 
L 311.352419 62.131517 
L 311.785954 62.131517 
L 311.785954 61.693501 
L 317.855439 61.693501 
L 317.855439 61.255485 
L 317.920469 61.255485 
L 319.004305 61.255485 
L 319.004305 60.817469 
L 320.239879 60.817469 
L 320.239879 60.379453 
L 320.326586 60.379453 
L 322.190785 60.379453 
L 322.407552 59.941437 
L 329.951055 59.941437 
L 329.951055 59.503422 
L 333.57107 59.503422 
L 334.676583 59.065406 
L 335.023411 58.62739 
L 336.757549 58.62739 
L 336.757549 58.189374 
L 336.865933 58.189374 
L 337.061024 58.189374 
L 337.061024 57.751358 
L 340.39924 57.751358 
L 340.39924 57.313342 
L 341.26631 57.313342 
L 341.721521 56.875326 
L 352.689948 56.875326 
L 352.950068 56.43731 
L 353.296896 56.43731 
L 353.296896 55.999295 
L 358.672726 55.999295 
L 358.672726 55.561279 
L 358.759433 55.561279 
L 360.797045 55.561279 
L 360.797045 55.123263 
L 360.862076 55.123263 
L 362.010942 54.685247 
L 363.680051 54.685247 
L 363.680051 54.247231 
L 365.327483 54.247231 
L 365.327483 53.809215 
L 365.782694 53.809215 
L 365.782694 53.371199 
L 365.847724 53.371199 
L 369.554445 53.371199 
L 369.554445 52.933184 
L 377.943341 52.933184 
L 377.943341 52.495168 
L 379.850893 52.495168 
L 379.980954 52.057152 
L 380.978083 52.057152 
L 380.978083 51.619136 
L 383.665998 51.619136 
L 383.709352 51.18112 
L 384.879895 51.18112 
L 384.879895 50.743104 
L 396.45527 50.743104 
L 396.45527 50.305088 
L 400.053608 50.305088 
L 400.053608 49.867073 
L 400.096961 49.867073 
L 401.007384 49.867073 
L 401.007384 49.429057 
L 401.050737 49.429057 
L 413.103001 49.429057 
L 413.103001 48.991041 
L 413.189708 48.991041 
L 413.688272 48.991041 
L 413.688272 48.553025 
L 414.533665 48.553025 
L 414.533665 48.115009 
L 423.182681 48.115009 
L 423.182681 47.676993 
L 429.338873 47.676993 
L 429.338873 47.238977 
L 440.762511 47.238977 
L 440.892572 46.800961 
L 445.379655 46.800961 
L 445.379655 46.362946 
L 455.63275 46.362946 
L 455.741133 45.486914 
L 457.215151 45.486914 
L 457.496949 45.048898 
L 463.39302 45.048898 
L 463.39302 44.610882 
L 471.066583 44.610882 
L 471.066583 44.172866 
L 471.15329 44.172866 
L 473.125873 44.172866 
L 473.602761 43.73485 
L 474.166356 43.73485 
L 474.166356 43.296835 
L 475.315223 43.296835 
L 475.315223 42.858819 
L 494.520807 42.858819 
L 494.520807 42.420803 
L 496.926925 42.420803 
L 496.926925 41.982787 
L 497.035308 41.982787 
L 498.205852 41.982787 
L 499.029568 41.544771 
L 499.701546 41.544771 
L 499.701546 41.106755 
L 506.919898 41.106755 
L 506.963252 40.668739 
L 512.230698 40.668739 
L 512.230698 40.230724 
L 512.685909 40.230724 
L 512.685909 39.792708 
L 513.552978 39.792708 
L 513.574655 39.354692 
L 527.902975 39.354692 
L 527.902975 38.916676 
L 527.924652 38.916676 
L 541.927821 38.916676 
L 542.231295 38.47866 
L 544.680766 38.47866 
L 544.680766 38.040644 
L 546.870116 38.040644 
L 546.870116 37.602628 
L 548.474194 37.602628 
L 548.474194 37.164612 
L 553.004631 37.164612 
L 553.004631 36.726597 
L 567.744809 36.726597 
L 567.744809 36.288581 
L 576.285442 36.288581 
L 576.285442 35.850565 
L 592.521314 35.850565 
L 592.521314 35.412549 
L 593.28 35.412549 
L 593.28 35.412549 
" clip-path="url(#p9701ecc557)" style="fill: none; stroke: #1f77b4; stroke-width: 2.2; stroke-linecap: square"/>
   </g>
   <g id="line2d_26">
    <path d="M 47.72 462.04 
L 47.78503 437.511112 
L 47.85006 437.511112 
L 47.958444 423.93262 
L 48.001798 423.93262 
L 48.110181 411.668176 
L 48.131858 411.668176 
L 48.218565 402.469843 
L 48.261918 402.469843 
L 48.370302 388.015319 
L 48.391979 388.015319 
L 48.500362 377.064922 
L 48.522039 377.064922 
L 48.630423 373.12278 
L 48.652099 373.12278 
L 48.760483 369.180637 
L 48.78216 369.180637 
L 48.890544 366.552542 
L 48.933897 366.552542 
L 49.042281 363.048415 
L 49.063957 363.048415 
L 49.150664 360.42032 
L 49.194018 360.42032 
L 49.302401 356.478177 
L 49.324078 356.478177 
L 49.432462 352.536034 
L 49.497492 352.536034 
L 49.562522 348.593891 
L 49.627552 348.593891 
L 49.735936 343.775717 
L 49.800966 343.775717 
L 49.822643 342.461669 
L 49.931027 342.461669 
L 50.017734 340.27159 
L 50.104441 340.27159 
L 50.212824 337.205479 
L 50.234501 337.205479 
L 50.256178 335.453415 
L 50.386238 335.453415 
L 50.494622 330.197225 
L 50.559652 330.197225 
L 50.559652 328.445162 
L 50.689712 328.445162 
L 50.798096 324.065003 
L 50.841449 324.065003 
L 50.928156 321.874924 
L 50.993187 321.874924 
L 51.014863 319.684844 
L 51.144924 319.684844 
L 51.253307 315.742702 
L 51.274984 315.742702 
L 51.361691 312.238575 
L 51.405045 312.238575 
L 51.513428 310.924527 
L 51.556782 310.924527 
L 51.665165 308.296432 
L 51.838579 308.296432 
L 51.925286 305.230321 
L 51.990316 305.230321 
L 52.055346 303.916273 
L 52.120377 303.916273 
L 52.22876 300.850162 
L 52.272114 300.850162 
L 52.380497 297.346035 
L 52.423851 297.346035 
L 52.532235 293.841908 
L 52.575588 293.841908 
L 52.683972 291.651829 
L 52.705648 291.651829 
L 52.770679 289.023734 
L 52.835709 289.023734 
L 52.835709 288.585718 
L 52.965769 288.585718 
L 53.052476 285.519607 
L 53.16086 285.519607 
L 53.247567 281.577464 
L 53.29092 281.577464 
L 53.399304 280.701433 
L 53.529364 280.701433 
L 53.616071 279.387385 
L 53.659425 279.387385 
L 53.724455 277.197306 
L 53.789485 277.197306 
L 53.832839 275.007226 
L 53.941222 275.007226 
L 54.049606 273.255163 
L 54.114636 273.255163 
L 54.22302 270.627068 
L 54.35308 270.627068 
L 54.35308 270.189052 
L 54.504817 270.189052 
L 54.504817 269.751036 
L 54.634878 269.751036 
L 54.634878 269.31302 
L 54.960029 269.31302 
L 54.981705 268.436988 
L 55.090089 268.436988 
L 55.176796 265.808893 
L 55.220149 265.808893 
L 55.220149 265.370877 
L 55.371887 265.370877 
L 55.48027 263.180798 
L 55.5453 263.180798 
L 55.653684 260.114687 
L 56.000512 260.114687 
L 56.022188 258.800639 
L 56.260633 258.800639 
L 56.260633 258.362624 
L 56.390693 258.362624 
L 56.390693 257.048576 
L 56.564107 257.048576 
L 56.650814 254.858497 
L 56.694167 254.858497 
L 56.694167 254.420481 
L 57.236086 254.420481 
L 57.322792 253.544449 
L 57.431176 253.544449 
L 57.517883 250.916354 
L 57.778004 250.916354 
L 57.886387 250.040322 
L 57.973094 250.040322 
L 58.016448 249.16429 
L 58.168185 249.16429 
L 58.168185 248.726275 
L 58.298245 248.726275 
L 58.406629 246.098179 
L 58.471659 246.098179 
L 58.536689 244.346116 
L 58.60172 244.346116 
L 58.60172 243.9081 
L 58.753457 243.9081 
L 58.753457 243.470084 
L 58.926871 243.470084 
L 58.926871 242.594052 
L 59.121961 242.594052 
L 59.230345 241.280005 
L 59.295375 241.280005 
L 59.403759 239.527941 
L 59.512142 239.527941 
L 59.512142 239.089926 
L 59.72891 239.089926 
L 59.837293 237.775878 
L 59.945677 237.775878 
L 59.945677 237.337862 
L 60.162444 237.337862 
L 60.162444 236.899846 
L 60.292505 236.899846 
L 60.357535 236.023814 
L 60.422565 236.023814 
L 60.509272 233.833735 
L 60.595979 233.833735 
L 60.617656 232.957703 
L 60.98616 232.957703 
L 61.05119 231.643656 
L 61.116221 231.643656 
L 61.137897 231.20564 
L 61.267958 231.20564 
L 61.267958 230.767624 
L 61.398018 230.767624 
L 61.398018 229.891592 
L 61.549755 229.891592 
L 61.549755 228.577545 
L 61.939936 228.577545 
L 62.04832 227.263497 
L 62.265087 227.263497 
L 62.373471 225.511434 
L 62.676945 225.511434 
L 62.676945 225.073418 
L 62.937066 225.073418 
L 62.937066 224.635402 
L 63.17551 224.635402 
L 63.262217 223.321354 
L 63.522338 223.321354 
L 63.522338 222.883339 
L 64.042579 222.883339 
L 64.042579 222.445323 
L 64.23767 222.445323 
L 64.3027 221.131275 
L 64.324377 221.131275 
L 64.454437 221.131275 
L 64.454437 220.693259 
L 64.671205 220.693259 
L 64.757912 219.379212 
L 64.996356 219.379212 
L 64.996356 218.941196 
L 65.321507 218.941196 
L 65.42989 217.189132 
L 65.494921 217.189132 
L 65.494921 216.751116 
L 65.646658 216.751116 
L 65.646658 216.313101 
L 66.210253 216.313101 
L 66.253606 214.999053 
L 66.448697 214.999053 
L 66.448697 214.561037 
L 66.643787 214.561037 
L 66.730494 213.685005 
L 66.990615 213.685005 
L 67.055645 212.808974 
L 67.142352 212.808974 
L 67.207382 211.494926 
L 67.294089 211.494926 
L 67.315766 210.618894 
L 67.575887 210.618894 
L 67.597564 209.742863 
L 67.922715 209.742863 
L 67.944391 208.866831 
L 68.052775 208.866831 
L 68.161159 206.676752 
L 68.204512 206.676752 
L 68.269542 205.80072 
L 68.55134 205.80072 
L 68.55134 205.362704 
L 68.876491 205.362704 
L 68.919844 204.486672 
L 69.006551 204.486672 
L 69.006551 204.048656 
L 69.136612 204.048656 
L 69.136612 203.610641 
L 69.6135 203.610641 
L 69.700207 202.734609 
L 70.047034 202.734609 
L 70.047034 202.296593 
L 70.220448 202.296593 
L 70.220448 201.858577 
L 70.502246 201.858577 
L 70.567276 200.54453 
L 70.632306 200.54453 
L 70.74069 198.792466 
L 70.827397 198.792466 
L 70.827397 198.35445 
L 71.022487 198.35445 
L 71.022487 197.478418 
L 71.586082 197.478418 
L 71.586082 197.040403 
L 71.889557 197.040403 
L 71.911233 196.164371 
L 72.279738 196.164371 
L 72.366445 195.288339 
L 72.496505 195.288339 
L 72.496505 194.850323 
L 72.756626 194.850323 
L 72.756626 194.412307 
L 72.908363 194.412307 
L 72.93004 193.536276 
L 73.320221 193.536276 
L 73.493635 192.660244 
L 73.536988 192.660244 
L 73.536988 192.222228 
L 73.970523 192.222228 
L 73.9922 190.908181 
L 74.295674 190.908181 
L 74.295674 190.470165 
L 74.425734 190.470165 
L 74.490764 188.718101 
L 74.577471 188.718101 
L 74.685855 187.842069 
L 74.989329 187.842069 
L 75.097713 186.966038 
L 75.444541 186.966038 
L 75.509571 186.090006 
L 75.596278 186.090006 
L 75.596278 185.65199 
L 76.116519 185.65199 
L 76.116519 185.213974 
L 76.268257 185.213974 
L 76.31161 184.337943 
L 76.485024 184.337943 
L 76.485024 183.461911 
L 76.810175 183.461911 
L 76.810175 183.023895 
L 77.091972 183.023895 
L 77.091972 182.585879 
L 77.395447 182.585879 
L 77.395447 181.709847 
L 77.655567 181.709847 
L 77.655567 181.271832 
L 78.154132 181.271832 
L 78.154132 180.833816 
L 78.43593 180.833816 
L 78.43593 180.3958 
L 78.761081 180.3958 
L 78.761081 179.957784 
L 78.891141 179.957784 
L 78.891141 179.519768 
L 79.086232 179.519768 
L 79.086232 178.643736 
L 79.237969 178.643736 
L 79.237969 178.20572 
L 79.714857 178.20572 
L 79.714857 177.329689 
L 79.909948 177.329689 
L 79.909948 176.891673 
L 80.061685 176.891673 
L 80.148392 176.015641 
L 80.321805 176.015641 
L 80.321805 175.577625 
L 80.451866 175.577625 
L 80.56025 174.701594 
L 81.297258 174.701594 
L 81.362289 173.825562 
L 81.579056 173.825562 
L 81.68744 172.94953 
L 81.709116 172.94953 
L 81.709116 172.511514 
L 81.969237 172.511514 
L 82.099298 172.073498 
L 82.272711 172.073498 
L 82.272711 171.635483 
L 82.576186 171.635483 
L 82.619539 170.759451 
L 82.749599 170.759451 
L 82.749599 170.321435 
L 84.375354 170.321435 
L 84.375354 169.883419 
L 84.613798 169.883419 
L 84.613798 169.445403 
L 84.982303 169.445403 
L 85.025656 168.569372 
L 85.610928 168.569372 
L 85.610928 167.69334 
L 85.892726 167.69334 
L 85.936079 166.817308 
L 86.13117 166.817308 
L 86.13117 166.379292 
L 86.32626 166.379292 
L 86.32626 165.941276 
L 87.496804 165.941276 
L 87.496804 165.50326 
L 87.691894 165.50326 
L 87.691894 165.065245 
L 88.25549 165.065245 
L 88.25549 164.627229 
L 88.407227 164.627229 
L 88.407227 163.751197 
L 88.645671 163.751197 
L 88.645671 163.313181 
L 88.732378 163.313181 
L 89.274296 163.313181 
L 89.274296 162.875165 
L 89.38268 162.875165 
L 89.44771 162.875165 
L 89.556093 161.561118 
L 89.6428 161.561118 
L 89.6428 161.123102 
L 90.119688 161.123102 
L 90.119688 160.685086 
L 90.726637 160.685086 
L 90.726637 160.24707 
L 91.441969 160.24707 
L 91.441969 159.809054 
L 91.63706 159.809054 
L 91.63706 159.371038 
L 92.113948 159.371038 
L 92.157301 158.495007 
L 92.850957 158.495007 
L 92.850957 158.056991 
L 94.151561 158.056991 
L 94.151561 157.618975 
L 95.387134 157.618975 
L 95.387134 157.180959 
L 96.08079 157.180959 
L 96.08079 156.742943 
L 96.752769 156.742943 
L 96.752769 156.304927 
L 97.403071 156.304927 
L 97.403071 155.866911 
L 97.814928 155.866911 
L 97.901635 154.99088 
L 98.010019 154.99088 
L 98.075049 153.676832 
L 98.985472 153.676832 
L 98.985472 153.238816 
L 99.3323 153.238816 
L 99.3323 152.8008 
L 99.39733 152.8008 
L 99.614097 152.8008 
L 99.722481 151.048737 
L 101.001408 151.048737 
L 101.001408 150.172705 
L 101.023085 150.172705 
L 101.261529 150.172705 
L 101.261529 149.734689 
L 101.391589 149.734689 
L 101.391589 148.858658 
L 101.499973 148.858658 
L 102.518779 148.858658 
L 102.518779 148.420642 
L 102.692193 148.420642 
L 102.692193 147.982626 
L 103.190758 147.982626 
L 103.277465 146.668578 
L 103.667646 146.668578 
L 103.667646 146.230562 
L 103.884414 146.230562 
L 103.97112 145.354531 
L 103.992797 145.354531 
L 104.621422 145.354531 
L 104.686453 144.040483 
L 106.247177 144.040483 
L 106.290531 142.726436 
L 106.724065 142.726436 
L 106.724065 142.28842 
L 107.352691 142.28842 
L 107.352691 141.850404 
L 107.786225 141.850404 
L 107.786225 141.412388 
L 108.263113 141.412388 
L 108.263113 140.974372 
L 109.086829 140.974372 
L 109.086829 140.536356 
L 111.40624 140.536356 
L 111.40624 140.09834 
L 111.753067 140.09834 
L 111.753067 139.660325 
L 113.530559 139.660325 
L 113.530559 139.222309 
L 114.115831 139.222309 
L 114.115831 138.784293 
L 114.354275 138.784293 
L 114.354275 138.346277 
L 114.592719 138.346277 
L 114.592719 137.908261 
L 114.744456 137.908261 
L 114.744456 137.470245 
L 114.809487 137.470245 
L 114.982901 137.470245 
L 114.982901 137.032229 
L 115.264698 137.032229 
L 115.264698 136.594213 
L 116.261828 136.594213 
L 116.261828 136.156198 
L 117.085544 136.156198 
L 117.10722 135.280166 
L 117.258957 135.280166 
L 117.258957 134.84215 
L 117.714169 134.84215 
L 117.735846 133.528102 
L 117.97429 133.528102 
L 117.97429 133.090087 
L 118.126027 133.090087 
L 118.126027 132.652071 
L 118.559561 132.652071 
L 118.559561 132.214055 
L 119.3616 132.214055 
L 119.3616 131.776039 
L 119.925195 131.776039 
L 119.925195 131.338023 
L 120.727235 131.338023 
L 120.727235 130.900007 
L 121.637657 130.900007 
L 121.659334 130.023976 
L 121.919455 130.023976 
L 121.919455 129.58596 
L 122.266283 129.58596 
L 122.266283 129.147944 
L 122.35299 129.147944 
L 123.133352 129.147944 
L 123.155029 128.271912 
L 123.54521 128.271912 
L 123.54521 127.833896 
L 124.173835 127.833896 
L 124.173835 127.39588 
L 125.062581 127.39588 
L 125.062581 126.519849 
L 125.149288 126.519849 
L 125.344379 126.519849 
L 125.344379 126.081833 
L 126.449892 126.081833 
L 126.449892 125.643817 
L 126.623306 125.643817 
L 126.623306 125.205801 
L 126.92678 125.205801 
L 126.92678 124.767785 
L 128.05397 124.767785 
L 128.05397 124.329769 
L 128.964393 124.329769 
L 128.964393 123.891753 
L 129.0511 123.891753 
L 129.744755 123.891753 
L 129.788109 123.015722 
L 129.853139 123.015722 
L 131.739015 123.015722 
L 131.739015 122.577706 
L 133.039619 122.577706 
L 133.126325 121.701674 
L 134.665373 121.701674 
L 134.665373 121.263658 
L 134.860464 121.263658 
L 134.860464 120.825642 
L 135.467413 120.825642 
L 135.55412 119.949611 
L 135.640826 119.949611 
L 135.640826 119.511595 
L 136.637956 119.511595 
L 136.637956 119.073579 
L 136.702986 119.073579 
L 137.916883 119.073579 
L 138.025267 118.197547 
L 140.539768 118.197547 
L 140.539768 117.759531 
L 140.778212 117.759531 
L 140.778212 117.321515 
L 141.12504 117.321515 
L 141.12504 116.8835 
L 141.471867 116.8835 
L 141.471867 116.445484 
L 142.360613 116.445484 
L 142.360613 116.007468 
L 143.032592 116.007468 
L 143.032592 115.569452 
L 143.24936 115.569452 
L 143.24936 115.131436 
L 143.336066 115.131436 
L 144.354873 115.131436 
L 144.354873 114.69342 
L 145.026852 114.69342 
L 145.026852 114.255404 
L 145.76386 114.255404 
L 145.76386 113.817389 
L 145.893921 113.817389 
L 145.893921 113.379373 
L 147.779797 113.379373 
L 147.779797 112.941357 
L 150.250944 112.941357 
L 150.250944 112.503341 
L 150.359328 112.503341 
L 150.792862 112.503341 
L 150.922923 111.627309 
L 151.20472 111.627309 
L 151.20472 111.189293 
L 153.784251 111.189293 
L 153.784251 110.751278 
L 153.892635 110.751278 
L 155.843541 110.751278 
L 155.843541 110.313262 
L 155.973601 110.313262 
L 155.973601 109.875246 
L 156.038632 109.875246 
L 156.298752 109.875246 
L 156.385459 108.999214 
L 157.252529 108.999214 
L 157.252529 108.561198 
L 157.621033 108.561198 
L 157.621033 108.123182 
L 157.729417 108.123182 
L 158.119598 108.123182 
L 158.119598 107.685166 
L 160.482362 107.685166 
L 160.482362 107.247151 
L 160.699129 107.247151 
L 160.742483 106.371119 
L 161.609552 106.371119 
L 161.609552 105.933103 
L 162.303207 105.933103 
L 162.368237 105.057071 
L 163.040216 105.057071 
L 163.08357 104.18104 
L 163.950639 104.18104 
L 163.950639 103.743024 
L 164.709325 103.743024 
L 164.709325 103.305008 
L 165.814838 103.305008 
L 165.814838 102.428976 
L 165.944898 102.428976 
L 165.944898 101.99096 
L 166.46514 101.99096 
L 166.46514 101.552944 
L 167.353886 101.552944 
L 167.353886 100.676913 
L 170.648749 100.676913 
L 171.03893 99.800881 
L 171.515818 99.800881 
L 171.515818 99.362865 
L 171.689232 99.362865 
L 171.689232 98.924849 
L 171.906 98.924849 
L 172.014383 98.048817 
L 172.339534 98.048817 
L 172.339534 97.610802 
L 175.200863 97.610802 
L 175.200863 97.172786 
L 175.28757 97.172786 
L 180.92352 97.172786 
L 181.031904 96.296754 
L 182.831073 96.296754 
L 182.91778 95.420722 
L 183.286284 95.420722 
L 183.286284 94.982706 
L 183.394668 94.982706 
L 183.416345 94.544691 
L 186.017552 94.544691 
L 186.017552 94.106675 
L 187.166419 94.106675 
L 187.166419 93.668659 
L 188.271933 93.668659 
L 188.271933 93.230643 
L 188.575407 93.230643 
L 188.727144 92.792627 
L 192.195421 92.792627 
L 192.195421 92.354611 
L 194.05962 92.354611 
L 194.05962 91.916595 
L 194.644892 91.916595 
L 194.774952 91.47858 
L 196.18394 91.47858 
L 196.227293 90.602548 
L 199.131976 90.602548 
L 199.131976 90.164532 
L 199.197006 90.164532 
L 199.50048 90.164532 
L 199.50048 89.726516 
L 200.75773 89.726516 
L 201.863244 88.850484 
L 201.863244 88.412468 
L 202.058334 88.412468 
L 202.080011 87.974453 
L 203.922533 87.974453 
L 203.922533 87.536437 
L 204.00924 87.536437 
L 204.724572 87.536437 
L 204.724572 87.098421 
L 204.832956 87.098421 
L 204.854633 87.098421 
L 204.854633 86.660405 
L 208.583031 86.660405 
L 209.51513 86.222389 
L 210.295493 86.222389 
L 210.295493 85.784373 
L 213.243528 85.784373 
L 213.243528 85.346357 
L 213.351912 85.346357 
L 214.284011 85.346357 
L 214.414072 84.908342 
L 216.495038 84.908342 
L 216.495038 84.470326 
L 216.646775 84.470326 
L 216.646775 84.03231 
L 218.836125 84.03231 
L 218.836125 83.594294 
L 219.247983 83.594294 
L 219.247983 83.156278 
L 219.291337 83.156278 
L 219.854932 83.156278 
L 220.071699 82.718262 
L 220.310143 82.718262 
L 220.310143 82.280246 
L 220.353497 82.280246 
L 230.498207 82.280246 
L 230.910065 81.842231 
L 231.451983 81.842231 
L 231.451983 81.404215 
L 231.53869 81.404215 
L 232.362406 81.404215 
L 232.362406 80.966199 
L 232.860971 80.966199 
L 232.860971 80.528183 
L 232.926001 80.528183 
L 233.619657 80.090167 
L 233.619657 79.652151 
L 234.248282 79.652151 
L 234.378342 79.214135 
L 235.809007 79.214135 
L 235.809007 78.776119 
L 235.874037 78.776119 
L 236.91452 78.776119 
L 236.91452 78.338104 
L 237.97668 78.338104 
L 237.97668 77.900088 
L 238.757042 77.900088 
L 238.757042 77.462072 
L 238.952133 77.462072 
L 238.952133 77.024056 
L 239.429021 77.024056 
L 239.472374 76.58604 
L 242.312026 76.58604 
L 242.312026 76.148024 
L 242.42041 76.148024 
L 243.374186 76.148024 
L 243.374186 75.710008 
L 244.132872 75.710008 
L 244.132872 75.271993 
L 244.176225 75.271993 
L 244.262932 75.271993 
L 244.262932 74.833977 
L 247.254321 74.833977 
L 247.254321 74.395961 
L 247.79624 74.395961 
L 247.79624 73.957945 
L 247.817916 73.957945 
L 248.8584 73.957945 
L 248.8584 73.519929 
L 248.945106 73.519929 
L 257.290648 73.519929 
L 257.290648 73.081913 
L 257.355679 73.081913 
L 258.851373 73.081913 
L 258.851373 72.643897 
L 258.916403 72.643897 
L 260.021917 72.643897 
L 260.021917 72.205882 
L 260.563835 72.205882 
L 260.715572 71.767866 
L 262.18959 71.767866 
L 262.18959 71.32985 
L 264.834151 71.32985 
L 264.855828 70.891834 
L 266.980148 70.891834 
L 266.980148 70.453818 
L 267.673803 70.453818 
L 267.738833 70.015802 
L 270.101597 70.015802 
L 270.101597 69.577786 
L 270.751899 69.577786 
L 270.903636 69.139771 
L 273.309754 69.139771 
L 273.309754 68.701755 
L 273.353107 68.701755 
L 275.173953 68.701755 
L 275.173953 68.263739 
L 276.51791 68.263739 
L 276.51791 67.825723 
L 276.756354 67.825723 
L 276.821384 67.387707 
L 277.124859 67.387707 
L 277.124859 66.949691 
L 277.276596 66.949691 
L 277.276596 66.511675 
L 281.070024 66.511675 
L 281.070024 66.073659 
L 287.009449 66.073659 
L 287.074479 65.635644 
L 288.049932 65.635644 
L 288.049932 65.197628 
L 290.152575 65.197628 
L 290.152575 64.759612 
L 290.239282 64.759612 
L 291.865037 64.759612 
L 291.865037 64.321596 
L 292.710429 64.321596 
L 292.710429 63.88358 
L 292.797136 63.88358 
L 293.404085 63.88358 
L 293.425761 63.445564 
L 294.292831 63.445564 
L 294.292831 63.007548 
L 294.314507 63.007548 
L 297.28422 63.007548 
L 297.28422 62.569533 
L 297.34925 62.569533 
L 305.694792 62.569533 
L 305.694792 62.131517 
L 305.759822 62.131517 
L 306.713598 62.131517 
L 306.778628 61.693501 
L 308.816241 61.693501 
L 308.816241 61.255485 
L 311.200682 61.255485 
L 311.200682 60.817469 
L 311.309065 60.817469 
L 313.303325 60.817469 
L 313.303325 60.379453 
L 320.673414 60.379453 
L 320.673414 59.941437 
L 320.716767 59.941437 
L 324.401812 59.941437 
L 324.683609 59.503422 
L 326.547808 59.503422 
L 326.547808 59.065406 
L 327.176434 59.065406 
L 327.176434 58.62739 
L 330.492974 58.62739 
L 330.492974 58.189374 
L 330.579681 58.189374 
L 331.663517 58.189374 
L 331.663517 57.751358 
L 331.750224 57.751358 
L 331.945315 57.751358 
L 332.140405 57.313342 
L 334.741613 57.313342 
L 334.980057 56.875326 
L 336.432398 56.875326 
L 339.120313 55.999295 
L 340.160796 55.999295 
L 340.160796 55.561279 
L 346.121898 55.561279 
L 346.121898 55.123263 
L 346.186928 55.123263 
L 346.360342 55.123263 
L 346.360342 54.685247 
L 346.468725 54.685247 
L 346.988967 54.685247 
L 346.988967 54.247231 
L 347.639269 54.247231 
L 347.639269 53.809215 
L 348.02945 53.809215 
L 348.137834 53.371199 
L 348.397955 53.371199 
L 349.178317 52.933184 
L 352.47318 52.933184 
L 352.841685 52.495168 
L 353.058452 52.495168 
L 353.058452 52.057152 
L 353.145159 52.057152 
L 356.72182 52.057152 
L 356.72182 51.619136 
L 357.025294 51.619136 
L 357.025294 51.18112 
L 367.516832 51.18112 
L 367.538509 50.743104 
L 376.534353 50.743104 
L 376.577707 49.867073 
L 381.433295 49.867073 
L 381.433295 49.429057 
L 382.365394 49.429057 
L 382.430424 48.991041 
L 384.489714 48.991041 
L 388.62997 48.553025 
L 396.693714 48.553025 
L 396.693714 48.115009 
L 397.972641 48.115009 
L 398.427853 47.676993 
L 398.427853 47.238977 
L 398.536236 47.238977 
L 399.923547 47.238977 
L 400.617203 46.800961 
L 401.505949 46.800961 
L 401.505949 46.362946 
L 402.047867 46.362946 
L 402.047867 45.92493 
L 402.069544 45.92493 
L 404.172187 45.92493 
L 404.172187 45.486914 
L 404.258894 45.486914 
L 406.426567 45.486914 
L 407.727171 45.048898 
L 407.727171 44.610882 
L 413.688272 44.610882 
L 413.688272 44.172866 
L 423.594539 44.172866 
L 423.594539 43.73485 
L 426.585928 43.73485 
L 426.585928 43.296835 
L 426.607605 43.296835 
L 427.062816 43.296835 
L 427.409644 42.858819 
L 428.406774 42.858819 
L 428.406774 42.420803 
L 428.471804 42.420803 
L 432.980564 42.420803 
L 432.980564 41.982787 
L 450.690455 41.982787 
L 450.690455 41.544771 
L 450.798838 41.544771 
L 456.564849 41.544771 
L 456.564849 41.106755 
L 459.035997 41.106755 
L 459.035997 40.668739 
L 460.683428 40.668739 
L 460.986902 40.230724 
L 461.984032 40.230724 
L 463.284636 39.792708 
L 485.438257 39.792708 
L 485.785084 39.354692 
L 489.470129 39.354692 
L 489.903663 38.916676 
L 495.214463 38.916676 
L 495.257816 38.47866 
L 498.942861 38.47866 
L 499.571486 38.040644 
L 525.388474 38.040644 
L 525.388474 37.602628 
L 526.255544 37.602628 
L 526.255544 37.164612 
L 527.664531 37.164612 
L 528.488247 36.726597 
L 541.797761 36.726597 
L 541.797761 36.288581 
L 541.862791 36.288581 
L 564.384916 36.288581 
L 564.536653 35.850565 
L 574.312859 35.850565 
L 574.659687 35.412549 
L 593.28 35.412549 
L 593.28 35.412549 
" clip-path="url(#p9701ecc557)" style="fill: none; stroke: #ff7f0e; stroke-width: 2.2; stroke-linecap: square"/>
   </g>
   <g id="line2d_27">
    <path d="M 47.72 462.04 
L 593.28 35.412549 
" clip-path="url(#p9701ecc557)" style="fill: none; stroke-dasharray: 3.7,1.6; stroke-dashoffset: 0; stroke: #808080"/>
   </g>
   <g id="patch_3">
    <path d="M 47.72 462.04 
L 47.72 26.88 
" style="fill: none; stroke: #000000; stroke-width: 0.8; stroke-linejoin: miter; stroke-linecap: square"/>
   </g>
   <g id="patch_4">
    <path d="M 593.28 462.04 
L 593.28 26.88 
" style="fill: none; stroke: #000000; stroke-width: 0.8; stroke-linejoin: miter; stroke-linecap: square"/>
   </g>
   <g id="patch_5">
    <path d="M 47.72 462.04 
L 593.28 462.04 
" style="fill: none; stroke: #000000; stroke-width: 0.8; stroke-linejoin: miter; stroke-linecap: square"/>
   </g>
   <g id="patch_6">
    <path d="M 47.72 26.88 
L 593.28 26.88 
" style="fill: none; stroke: #000000; stroke-width: 0.8; stroke-linejoin: miter; stroke-linecap: square"/>
   </g>
   <g id="text_15">
    <!-- ROC curve on test: CatBoost vs LightGBM -->
    <g transform="translate(195.4 20.88) scale(0.12 -0.12)">
     <defs>
      <path id="DejaVuSans-4f" d="M 2522 4238 
Q 1834 4238 1429 3725 
Q 1025 3213 1025 2328 
Q 1025 1447 1429 934 
Q 1834 422 2522 422 
Q 3209 422 3611 934 
Q 4013 1447 4013 2328 
Q 4013 3213 3611 3725 
Q 3209 4238 2522 4238 
z
M 2522 4750 
Q 3503 4750 4090 4092 
Q 4678 3434 4678 2328 
Q 4678 1225 4090 567 
Q 3503 -91 2522 -91 
Q 1538 -91 948 565 
Q 359 1222 359 2328 
Q 359 3434 948 4092 
Q 1538 4750 2522 4750 
z
" transform="scale(0.015625)"/>
      <path id="DejaVuSans-43" d="M 4122 4306 
L 4122 3641 
Q 3803 3938 3442 4084 
Q 3081 4231 2675 4231 
Q 1875 4231 1450 3742 
Q 1025 3253 1025 2328 
Q 1025 1406 1450 917 
Q 1875 428 2675 428 
Q 3081 428 3442 575 
Q 3803 722 4122 1019 
L 4122 359 
Q 3791 134 3420 21 
Q 3050 -91 2638 -91 
Q 1578 -91 968 557 
Q 359 1206 359 2328 
Q 359 3453 968 4101 
Q 1578 4750 2638 4750 
Q 3056 4750 3426 4639 
Q 3797 4528 4122 4306 
z
" transform="scale(0.015625)"/>
      <path id="DejaVuSans-6e" d="M 3513 2113 
L 3513 0 
L 2938 0 
L 2938 2094 
Q 2938 2591 2744 2837 
Q 2550 3084 2163 3084 
Q 1697 3084 1428 2787 
Q 1159 2491 1159 1978 
L 1159 0 
L 581 0 
L 581 3500 
L 1159 3500 
L 1159 2956 
Q 1366 3272 1645 3428 
Q 1925 3584 2291 3584 
Q 2894 3584 3203 3211 
Q 3513 2838 3513 2113 
z
" transform="scale(0.015625)"/>
      <path id="DejaVuSans-3a" d="M 750 794 
L 1409 794 
L 1409 0 
L 750 0 
L 750 794 
z
M 750 3309 
L 1409 3309 
L 1409 2516 
L 750 2516 
L 750 3309 
z
" transform="scale(0.015625)"/>
      <path id="DejaVuSans-42" d="M 1259 2228 
L 1259 519 
L 2272 519 
Q 2781 519 3026 730 
Q 3272 941 3272 1375 
Q 3272 1813 3026 2020 
Q 2781 2228 2272 2228 
L 1259 2228 
z
M 1259 4147 
L 1259 2741 
L 2194 2741 
Q 2656 2741 2882 2914 
Q 3109 3088 3109 3444 
Q 3109 3797 2882 3972 
Q 2656 4147 2194 4147 
L 1259 4147 
z
M 628 4666 
L 2241 4666 
Q 2963 4666 3353 4366 
Q 3744 4066 3744 3513 
Q 3744 3084 3544 2831 
Q 3344 2578 2956 2516 
Q 3422 2416 3680 2098 
Q 3938 1781 3938 1306 
Q 3938 681 3513 340 
Q 3088 0 2303 0 
L 628 0 
L 628 4666 
z
" transform="scale(0.015625)"/>
      <path id="DejaVuSans-4c" d="M 628 4666 
L 1259 4666 
L 1259 531 
L 3531 531 
L 3531 0 
L 628 0 
L 628 4666 
z
" transform="scale(0.015625)"/>
      <path id="DejaVuSans-67" d="M 2906 1791 
Q 2906 2416 2648 2759 
Q 2391 3103 1925 3103 
Q 1463 3103 1205 2759 
Q 947 2416 947 1791 
Q 947 1169 1205 825 
Q 1463 481 1925 481 
Q 2391 481 2648 825 
Q 2906 1169 2906 1791 
z
M 3481 434 
Q 3481 -459 3084 -895 
Q 2688 -1331 1869 -1331 
Q 1566 -1331 1297 -1286 
Q 1028 -1241 775 -1147 
L 775 -588 
Q 1028 -725 1275 -790 
Q 1522 -856 1778 -856 
Q 2344 -856 2625 -561 
Q 2906 -266 2906 331 
L 2906 616 
Q 2728 306 2450 153 
Q 2172 0 1784 0 
Q 1141 0 747 490 
Q 353 981 353 1791 
Q 353 2603 747 3093 
Q 1141 3584 1784 3584 
Q 2172 3584 2450 3431 
Q 2728 3278 2906 2969 
L 2906 3500 
L 3481 3500 
L 3481 434 
z
" transform="scale(0.015625)"/>
      <path id="DejaVuSans-68" d="M 3513 2113 
L 3513 0 
L 2938 0 
L 2938 2094 
Q 2938 2591 2744 2837 
Q 2550 3084 2163 3084 
Q 1697 3084 1428 2787 
Q 1159 2491 1159 1978 
L 1159 0 
L 581 0 
L 581 4863 
L 1159 4863 
L 1159 2956 
Q 1366 3272 1645 3428 
Q 1925 3584 2291 3584 
Q 2894 3584 3203 3211 
Q 3513 2838 3513 2113 
z
" transform="scale(0.015625)"/>
      <path id="DejaVuSans-47" d="M 3809 666 
L 3809 1919 
L 2778 1919 
L 2778 2438 
L 4434 2438 
L 4434 434 
Q 4069 175 3628 42 
Q 3188 -91 2688 -91 
Q 1594 -91 976 548 
Q 359 1188 359 2328 
Q 359 3472 976 4111 
Q 1594 4750 2688 4750 
Q 3144 4750 3555 4637 
Q 3966 4525 4313 4306 
L 4313 3634 
Q 3963 3931 3569 4081 
Q 3175 4231 2741 4231 
Q 1884 4231 1454 3753 
Q 1025 3275 1025 2328 
Q 1025 1384 1454 906 
Q 1884 428 2741 428 
Q 3075 428 3337 486 
Q 3600 544 3809 666 
z
" transform="scale(0.015625)"/>
      <path id="DejaVuSans-4d" d="M 628 4666 
L 1569 4666 
L 2759 1491 
L 3956 4666 
L 4897 4666 
L 4897 0 
L 4281 0 
L 4281 4097 
L 3078 897 
L 2444 897 
L 1241 4097 
L 1241 0 
L 628 0 
L 628 4666 
z
" transform="scale(0.015625)"/>
     </defs>
     <use xlink:href="#DejaVuSans-52"/>
     <use xlink:href="#DejaVuSans-4f" transform="translate(69.482422 0)"/>
     <use xlink:href="#DejaVuSans-43" transform="translate(148.193359 0)"/>
     <use xlink:href="#DejaVuSans-20" transform="translate(218.017578 0)"/>
     <use xlink:href="#DejaVuSans-63" transform="translate(249.804688 0)"/>
     <use xlink:href="#DejaVuSans-75" transform="translate(304.785156 0)"/>
     <use xlink:href="#DejaVuSans-72" transform="translate(368.164062 0)"/>
     <use xlink:href="#DejaVuSans-76" transform="translate(409.277344 0)"/>
     <use xlink:href="#DejaVuSans-65" transform="translate(468.457031 0)"/>
     <use xlink:href="#DejaVuSans-20" transform="translate(529.980469 0)"/>
     <use xlink:href="#DejaVuSans-6f" transform="translate(561.767578 0)"/>
     <use xlink:href="#DejaVuSans-6e" transform="translate(622.949219 0)"/>
     <use xlink:href="#DejaVuSans-20" transform="translate(686.328125 0)"/>
     <use xlink:href="#DejaVuSans-74" transform="translate(718.115234 0)"/>
     <use xlink:href="#DejaVuSans-65" transform="translate(757.324219 0)"/>
     <use xlink:href="#DejaVuSans-73" transform="translate(818.847656 0)"/>
     <use xlink:href="#DejaVuSans-74" transform="translate(870.947266 0)"/>
     <use xlink:href="#DejaVuSans-3a" transform="translate(910.15625 0)"/>
     <use xlink:href="#DejaVuSans-20" transform="translate(943.847656 0)"/>
     <use xlink:href="#DejaVuSans-43" transform="translate(975.634766 0)"/>
     <use xlink:href="#DejaVuSans-61" transform="translate(1045.458984 0)"/>
     <use xlink:href="#DejaVuSans-74" transform="translate(1106.738281 0)"/>
     <use xlink:href="#DejaVuSans-42" transform="translate(1145.947266 0)"/>
     <use xlink:href="#DejaVuSans-6f" transform="translate(1214.550781 0)"/>
     <use xlink:href="#DejaVuSans-6f" transform="translate(1275.732422 0)"/>
     <use xlink:href="#DejaVuSans-73" transform="translate(1336.914062 0)"/>
     <use xlink:href="#DejaVuSans-74" transform="translate(1389.013672 0)"/>
     <use xlink:href="#DejaVuSans-20" transform="translate(1428.222656 0)"/>
     <use xlink:href="#DejaVuSans-76" transform="translate(1460.009766 0)"/>
     <use xlink:href="#DejaVuSans-73" transform="translate(1519.189453 0)"/>
     <use xlink:href="#DejaVuSans-20" transform="translate(1571.289062 0)"/>
     <use xlink:href="#DejaVuSans-4c" transform="translate(1603.076172 0)"/>
     <use xlink:href="#DejaVuSans-69" transform="translate(1658.789062 0)"/>
     <use xlink:href="#DejaVuSans-67" transform="translate(1686.572266 0)"/>
     <use xlink:href="#DejaVuSans-68" transform="translate(1750.048828 0)"/>
     <use xlink:href="#DejaVuSans-74" transform="translate(1813.427734 0)"/>
     <use xlink:href="#DejaVuSans-47" transform="translate(1852.636719 0)"/>
     <use xlink:href="#DejaVuSans-42" transform="translate(1930.126953 0)"/>
     <use xlink:href="#DejaVuSans-4d" transform="translate(1998.730469 0)"/>
    </g>
   </g>
   <g id="legend_1">
    <g id="patch_7">
     <path d="M 259.39875 457.04 
L 586.28 457.04 
Q 588.28 457.04 588.28 455.04 
L 588.28 412.005625 
Q 588.28 410.005625 586.28 410.005625 
L 259.39875 410.005625 
Q 257.39875 410.005625 257.39875 412.005625 
L 257.39875 455.04 
Q 257.39875 457.04 259.39875 457.04 
z
" style="fill: #ffffff; opacity: 0.8; stroke: #cccccc; stroke-linejoin: miter"/>
    </g>
    <g id="line2d_28">
     <path d="M 261.39875 418.104062 
L 271.39875 418.104062 
L 281.39875 418.104062 
" style="fill: none; stroke: #1f77b4; stroke-width: 2.2; stroke-linecap: square"/>
    </g>
    <g id="text_16">
     <!-- CatBoost v1.1 longrun: ROC-AUC=0.8903, PR-AUC=0.4708 -->
     <g transform="translate(289.39875 421.604062) scale(0.1 -0.1)">
      <defs>
       <path id="DejaVuSans-2d" d="M 313 2009 
L 1997 2009 
L 1997 1497 
L 313 1497 
L 313 2009 
z
" transform="scale(0.015625)"/>
       <path id="DejaVuSans-41" d="M 2188 4044 
L 1331 1722 
L 3047 1722 
L 2188 4044 
z
M 1831 4666 
L 2547 4666 
L 4325 0 
L 3669 0 
L 3244 1197 
L 1141 1197 
L 716 0 
L 50 0 
L 1831 4666 
z
" transform="scale(0.015625)"/>
       <path id="DejaVuSans-55" d="M 556 4666 
L 1191 4666 
L 1191 1831 
Q 1191 1081 1462 751 
Q 1734 422 2344 422 
Q 2950 422 3222 751 
Q 3494 1081 3494 1831 
L 3494 4666 
L 4128 4666 
L 4128 1753 
Q 4128 841 3676 375 
Q 3225 -91 2344 -91 
Q 1459 -91 1007 375 
Q 556 841 556 1753 
L 556 4666 
z
" transform="scale(0.015625)"/>
       <path id="DejaVuSans-3d" d="M 678 2906 
L 4684 2906 
L 4684 2381 
L 678 2381 
L 678 2906 
z
M 678 1631 
L 4684 1631 
L 4684 1100 
L 678 1100 
L 678 1631 
z
" transform="scale(0.015625)"/>
       <path id="DejaVuSans-39" d="M 703 97 
L 703 672 
Q 941 559 1184 500 
Q 1428 441 1663 441 
Q 2288 441 2617 861 
Q 2947 1281 2994 2138 
Q 2813 1869 2534 1725 
Q 2256 1581 1919 1581 
Q 1219 1581 811 2004 
Q 403 2428 403 3163 
Q 403 3881 828 4315 
Q 1253 4750 1959 4750 
Q 2769 4750 3195 4129 
Q 3622 3509 3622 2328 
Q 3622 1225 3098 567 
Q 2575 -91 1691 -91 
Q 1453 -91 1209 -44 
Q 966 3 703 97 
z
M 1959 2075 
Q 2384 2075 2632 2365 
Q 2881 2656 2881 3163 
Q 2881 3666 2632 3958 
Q 2384 4250 1959 4250 
Q 1534 4250 1286 3958 
Q 1038 3666 1038 3163 
Q 1038 2656 1286 2365 
Q 1534 2075 1959 2075 
z
" transform="scale(0.015625)"/>
       <path id="DejaVuSans-33" d="M 2597 2516 
Q 3050 2419 3304 2112 
Q 3559 1806 3559 1356 
Q 3559 666 3084 287 
Q 2609 -91 1734 -91 
Q 1441 -91 1130 -33 
Q 819 25 488 141 
L 488 750 
Q 750 597 1062 519 
Q 1375 441 1716 441 
Q 2309 441 2620 675 
Q 2931 909 2931 1356 
Q 2931 1769 2642 2001 
Q 2353 2234 1838 2234 
L 1294 2234 
L 1294 2753 
L 1863 2753 
Q 2328 2753 2575 2939 
Q 2822 3125 2822 3475 
Q 2822 3834 2567 4026 
Q 2313 4219 1838 4219 
Q 1578 4219 1281 4162 
Q 984 4106 628 3988 
L 628 4550 
Q 988 4650 1302 4700 
Q 1616 4750 1894 4750 
Q 2613 4750 3031 4423 
Q 3450 4097 3450 3541 
Q 3450 3153 3228 2886 
Q 3006 2619 2597 2516 
z
" transform="scale(0.015625)"/>
       <path id="DejaVuSans-2c" d="M 750 794 
L 1409 794 
L 1409 256 
L 897 -744 
L 494 -744 
L 750 256 
L 750 794 
z
" transform="scale(0.015625)"/>
       <path id="DejaVuSans-37" d="M 525 4666 
L 3525 4666 
L 3525 4397 
L 1831 0 
L 1172 0 
L 2766 4134 
L 525 4134 
L 525 4666 
z
" transform="scale(0.015625)"/>
      </defs>
      <use xlink:href="#DejaVuSans-43"/>
      <use xlink:href="#DejaVuSans-61" transform="translate(69.824219 0)"/>
      <use xlink:href="#DejaVuSans-74" transform="translate(131.103516 0)"/>
      <use xlink:href="#DejaVuSans-42" transform="translate(170.3125 0)"/>
      <use xlink:href="#DejaVuSans-6f" transform="translate(238.916016 0)"/>
      <use xlink:href="#DejaVuSans-6f" transform="translate(300.097656 0)"/>
      <use xlink:href="#DejaVuSans-73" transform="translate(361.279297 0)"/>
      <use xlink:href="#DejaVuSans-74" transform="translate(413.378906 0)"/>
      <use xlink:href="#DejaVuSans-20" transform="translate(452.587891 0)"/>
      <use xlink:href="#DejaVuSans-76" transform="translate(484.375 0)"/>
      <use xlink:href="#DejaVuSans-31" transform="translate(543.554688 0)"/>
      <use xlink:href="#DejaVuSans-2e" transform="translate(607.177734 0)"/>
      <use xlink:href="#DejaVuSans-31" transform="translate(638.964844 0)"/>
      <use xlink:href="#DejaVuSans-20" transform="translate(702.587891 0)"/>
      <use xlink:href="#DejaVuSans-6c" transform="translate(734.375 0)"/>
      <use xlink:href="#DejaVuSans-6f" transform="translate(762.158203 0)"/>
      <use xlink:href="#DejaVuSans-6e" transform="translate(823.339844 0)"/>
      <use xlink:href="#DejaVuSans-67" transform="translate(886.71875 0)"/>
      <use xlink:href="#DejaVuSans-72" transform="translate(950.195312 0)"/>
      <use xlink:href="#DejaVuSans-75" transform="translate(991.308594 0)"/>
      <use xlink:href="#DejaVuSans-6e" transform="translate(1054.6875 0)"/>
      <use xlink:href="#DejaVuSans-3a" transform="translate(1118.066406 0)"/>
      <use xlink:href="#DejaVuSans-20" transform="translate(1151.757812 0)"/>
      <use xlink:href="#DejaVuSans-52" transform="translate(1183.544922 0)"/>
      <use xlink:href="#DejaVuSans-4f" transform="translate(1253.027344 0)"/>
      <use xlink:href="#DejaVuSans-43" transform="translate(1331.738281 0)"/>
      <use xlink:href="#DejaVuSans-2d" transform="translate(1401.5625 0)"/>
      <use xlink:href="#DejaVuSans-41" transform="translate(1435.396484 0)"/>
      <use xlink:href="#DejaVuSans-55" transform="translate(1503.804688 0)"/>
      <use xlink:href="#DejaVuSans-43" transform="translate(1576.998047 0)"/>
      <use xlink:href="#DejaVuSans-3d" transform="translate(1646.822266 0)"/>
      <use xlink:href="#DejaVuSans-30" transform="translate(1730.611328 0)"/>
      <use xlink:href="#DejaVuSans-2e" transform="translate(1794.234375 0)"/>
      <use xlink:href="#DejaVuSans-38" transform="translate(1826.021484 0)"/>
      <use xlink:href="#DejaVuSans-39" transform="translate(1889.644531 0)"/>
      <use xlink:href="#DejaVuSans-30" transform="translate(1953.267578 0)"/>
      <use xlink:href="#DejaVuSans-33" transform="translate(2016.890625 0)"/>
      <use xlink:href="#DejaVuSans-2c" transform="translate(2080.513672 0)"/>
      <use xlink:href="#DejaVuSans-20" transform="translate(2112.300781 0)"/>
      <use xlink:href="#DejaVuSans-50" transform="translate(2144.087891 0)"/>
      <use xlink:href="#DejaVuSans-52" transform="translate(2204.390625 0)"/>
      <use xlink:href="#DejaVuSans-2d" transform="translate(2269.873047 0)"/>
      <use xlink:href="#DejaVuSans-41" transform="translate(2303.707031 0)"/>
      <use xlink:href="#DejaVuSans-55" transform="translate(2372.115234 0)"/>
      <use xlink:href="#DejaVuSans-43" transform="translate(2445.308594 0)"/>
      <use xlink:href="#DejaVuSans-3d" transform="translate(2515.132812 0)"/>
      <use xlink:href="#DejaVuSans-30" transform="translate(2598.921875 0)"/>
      <use xlink:href="#DejaVuSans-2e" transform="translate(2662.544922 0)"/>
      <use xlink:href="#DejaVuSans-34" transform="translate(2694.332031 0)"/>
      <use xlink:href="#DejaVuSans-37" transform="translate(2757.955078 0)"/>
      <use xlink:href="#DejaVuSans-30" transform="translate(2821.578125 0)"/>
      <use xlink:href="#DejaVuSans-38" transform="translate(2885.201172 0)"/>
     </g>
    </g>
    <g id="line2d_29">
     <path d="M 261.39875 432.782187 
L 271.39875 432.782187 
L 281.39875 432.782187 
" style="fill: none; stroke: #ff7f0e; stroke-width: 2.2; stroke-linecap: square"/>
    </g>
    <g id="text_17">
     <!-- LightGBM v1.4: ROC-AUC=0.8987, PR-AUC=0.4967 -->
     <g transform="translate(289.39875 436.282187) scale(0.1 -0.1)">
      <use xlink:href="#DejaVuSans-4c"/>
      <use xlink:href="#DejaVuSans-69" transform="translate(55.712891 0)"/>
      <use xlink:href="#DejaVuSans-67" transform="translate(83.496094 0)"/>
      <use xlink:href="#DejaVuSans-68" transform="translate(146.972656 0)"/>
      <use xlink:href="#DejaVuSans-74" transform="translate(210.351562 0)"/>
      <use xlink:href="#DejaVuSans-47" transform="translate(249.560547 0)"/>
      <use xlink:href="#DejaVuSans-42" transform="translate(327.050781 0)"/>
      <use xlink:href="#DejaVuSans-4d" transform="translate(395.654297 0)"/>
      <use xlink:href="#DejaVuSans-20" transform="translate(481.933594 0)"/>
      <use xlink:href="#DejaVuSans-76" transform="translate(513.720703 0)"/>
      <use xlink:href="#DejaVuSans-31" transform="translate(572.900391 0)"/>
      <use xlink:href="#DejaVuSans-2e" transform="translate(636.523438 0)"/>
      <use xlink:href="#DejaVuSans-34" transform="translate(668.310547 0)"/>
      <use xlink:href="#DejaVuSans-3a" transform="translate(731.933594 0)"/>
      <use xlink:href="#DejaVuSans-20" transform="translate(765.625 0)"/>
      <use xlink:href="#DejaVuSans-52" transform="translate(797.412109 0)"/>
      <use xlink:href="#DejaVuSans-4f" transform="translate(866.894531 0)"/>
      <use xlink:href="#DejaVuSans-43" transform="translate(945.605469 0)"/>
      <use xlink:href="#DejaVuSans-2d" transform="translate(1015.429688 0)"/>
      <use xlink:href="#DejaVuSans-41" transform="translate(1049.263672 0)"/>
      <use xlink:href="#DejaVuSans-55" transform="translate(1117.671875 0)"/>
      <use xlink:href="#DejaVuSans-43" transform="translate(1190.865234 0)"/>
      <use xlink:href="#DejaVuSans-3d" transform="translate(1260.689453 0)"/>
      <use xlink:href="#DejaVuSans-30" transform="translate(1344.478516 0)"/>
      <use xlink:href="#DejaVuSans-2e" transform="translate(1408.101562 0)"/>
      <use xlink:href="#DejaVuSans-38" transform="translate(1439.888672 0)"/>
      <use xlink:href="#DejaVuSans-39" transform="translate(1503.511719 0)"/>
      <use xlink:href="#DejaVuSans-38" transform="translate(1567.134766 0)"/>
      <use xlink:href="#DejaVuSans-37" transform="translate(1630.757812 0)"/>
      <use xlink:href="#DejaVuSans-2c" transform="translate(1694.380859 0)"/>
      <use xlink:href="#DejaVuSans-20" transform="translate(1726.167969 0)"/>
      <use xlink:href="#DejaVuSans-50" transform="translate(1757.955078 0)"/>
      <use xlink:href="#DejaVuSans-52" transform="translate(1818.257812 0)"/>
      <use xlink:href="#DejaVuSans-2d" transform="translate(1883.740234 0)"/>
      <use xlink:href="#DejaVuSans-41" transform="translate(1917.574219 0)"/>
      <use xlink:href="#DejaVuSans-55" transform="translate(1985.982422 0)"/>
      <use xlink:href="#DejaVuSans-43" transform="translate(2059.175781 0)"/>
      <use xlink:href="#DejaVuSans-3d" transform="translate(2129 0)"/>
      <use xlink:href="#DejaVuSans-30" transform="translate(2212.789062 0)"/>
      <use xlink:href="#DejaVuSans-2e" transform="translate(2276.412109 0)"/>
      <use xlink:href="#DejaVuSans-34" transform="translate(2308.199219 0)"/>
      <use xlink:href="#DejaVuSans-39" transform="translate(2371.822266 0)"/>
      <use xlink:href="#DejaVuSans-36" transform="translate(2435.445312 0)"/>
      <use xlink:href="#DejaVuSans-37" transform="translate(2499.068359 0)"/>
     </g>
    </g>
    <g id="line2d_30">
     <path d="M 261.39875 447.460312 
L 271.39875 447.460312 
L 281.39875 447.460312 
" style="fill: none; stroke-dasharray: 3.7,1.6; stroke-dashoffset: 0; stroke: #808080"/>
    </g>
    <g id="text_18">
     <!-- Random -->
     <g transform="translate(289.39875 450.960312) scale(0.1 -0.1)">
      <defs>
       <path id="DejaVuSans-64" d="M 2906 2969 
L 2906 4863 
L 3481 4863 
L 3481 0 
L 2906 0 
L 2906 525 
Q 2725 213 2448 61 
Q 2172 -91 1784 -91 
Q 1150 -91 751 415 
Q 353 922 353 1747 
Q 353 2572 751 3078 
Q 1150 3584 1784 3584 
Q 2172 3584 2448 3432 
Q 2725 3281 2906 2969 
z
M 947 1747 
Q 947 1113 1208 752 
Q 1469 391 1925 391 
Q 2381 391 2643 752 
Q 2906 1113 2906 1747 
Q 2906 2381 2643 2742 
Q 2381 3103 1925 3103 
Q 1469 3103 1208 2742 
Q 947 2381 947 1747 
z
" transform="scale(0.015625)"/>
       <path id="DejaVuSans-6d" d="M 3328 2828 
Q 3544 3216 3844 3400 
Q 4144 3584 4550 3584 
Q 5097 3584 5394 3201 
Q 5691 2819 5691 2113 
L 5691 0 
L 5113 0 
L 5113 2094 
Q 5113 2597 4934 2840 
Q 4756 3084 4391 3084 
Q 3944 3084 3684 2787 
Q 3425 2491 3425 1978 
L 3425 0 
L 2847 0 
L 2847 2094 
Q 2847 2600 2669 2842 
Q 2491 3084 2119 3084 
Q 1678 3084 1418 2786 
Q 1159 2488 1159 1978 
L 1159 0 
L 581 0 
L 581 3500 
L 1159 3500 
L 1159 2956 
Q 1356 3278 1631 3431 
Q 1906 3584 2284 3584 
Q 2666 3584 2933 3390 
Q 3200 3197 3328 2828 
z
" transform="scale(0.015625)"/>
      </defs>
      <use xlink:href="#DejaVuSans-52"/>
      <use xlink:href="#DejaVuSans-61" transform="translate(67.232422 0)"/>
      <use xlink:href="#DejaVuSans-6e" transform="translate(128.511719 0)"/>
      <use xlink:href="#DejaVuSans-64" transform="translate(191.890625 0)"/>
      <use xlink:href="#DejaVuSans-6f" transform="translate(255.367188 0)"/>
      <use xlink:href="#DejaVuSans-6d" transform="translate(316.548828 0)"/>
     </g>
    </g>
   </g>
  </g>
 </g>
 <defs>
  <clipPath id="p9701ecc557">
   <rect x="47.72" y="26.88" width="545.56" height="435.16"/>
  </clipPath>
 </defs>
</svg>
